<svg width="432" height="45" viewBox="0 0 432 45" fill="none" xmlns="http://www.w3.org/2000/svg">
<path d="M11.142 3.596C10.71 3.14 10.194 2.78 9.594 2.516C8.994 2.252 8.298 2.12 7.506 2.12C6.69 2.12 5.958 2.27 5.31 2.57C4.662 2.87 4.11 3.272 3.654 3.776C3.21 4.28 2.868 4.868 2.628 5.54C2.388 6.2 2.268 6.896 2.268 7.628C2.268 8.36 2.388 9.062 2.628 9.734C2.868 10.394 3.21 10.976 3.654 11.48C4.11 11.984 4.662 12.386 5.31 12.686C5.958 12.986 6.69 13.136 7.506 13.136C8.166 13.136 8.796 13.058 9.396 12.902C10.008 12.734 10.554 12.512 11.034 12.236V7.97H7.992V6.782H12.33V13.028C11.61 13.448 10.818 13.772 9.954 14C9.102 14.216 8.286 14.324 7.506 14.324C6.558 14.324 5.676 14.156 4.86 13.82C4.056 13.484 3.354 13.022 2.754 12.434C2.166 11.834 1.704 11.126 1.368 10.31C1.032 9.494 0.864 8.6 0.864 7.628C0.864 6.656 1.032 5.762 1.368 4.946C1.704 4.13 2.166 3.428 2.754 2.84C3.354 2.24 4.056 1.772 4.86 1.436C5.676 1.1 6.558 0.932 7.506 0.932C8.526 0.932 9.402 1.076 10.134 1.364C10.878 1.64 11.538 2.066 12.114 2.642L11.142 3.596ZM22.5238 9.788C22.5238 9.32 22.4458 8.882 22.2898 8.474C22.1458 8.066 21.9358 7.712 21.6598 7.412C21.3838 7.112 21.0478 6.878 20.6518 6.71C20.2678 6.53 19.8298 6.44 19.3378 6.44C18.8458 6.44 18.4018 6.53 18.0058 6.71C17.6218 6.878 17.2918 7.112 17.0158 7.412C16.7518 7.712 16.5418 8.066 16.3858 8.474C16.2418 8.882 16.1698 9.32 16.1698 9.788C16.1698 10.256 16.2418 10.694 16.3858 11.102C16.5418 11.51 16.7518 11.864 17.0158 12.164C17.2918 12.464 17.6218 12.704 18.0058 12.884C18.4018 13.052 18.8458 13.136 19.3378 13.136C19.8298 13.136 20.2678 13.052 20.6518 12.884C21.0478 12.704 21.3838 12.464 21.6598 12.164C21.9358 11.864 22.1458 11.51 22.2898 11.102C22.4458 10.694 22.5238 10.256 22.5238 9.788ZM23.8198 9.788C23.8198 10.424 23.7058 11.012 23.4778 11.552C23.2618 12.092 22.9558 12.56 22.5598 12.956C22.1638 13.352 21.6898 13.664 21.1378 13.892C20.5978 14.108 19.9978 14.216 19.3378 14.216C18.6898 14.216 18.0898 14.108 17.5378 13.892C16.9978 13.664 16.5298 13.352 16.1338 12.956C15.7378 12.56 15.4258 12.092 15.1978 11.552C14.9818 11.012 14.8738 10.424 14.8738 9.788C14.8738 9.152 14.9818 8.564 15.1978 8.024C15.4258 7.484 15.7378 7.016 16.1338 6.62C16.5298 6.224 16.9978 5.918 17.5378 5.702C18.0898 5.474 18.6898 5.36 19.3378 5.36C19.9978 5.36 20.5978 5.474 21.1378 5.702C21.6898 5.918 22.1638 6.224 22.5598 6.62C22.9558 7.016 23.2618 7.484 23.4778 8.024C23.7058 8.564 23.8198 9.152 23.8198 9.788ZM35.4495 7.574C35.2695 7.226 35.0295 6.95 34.7295 6.746C34.4295 6.542 34.0635 6.44 33.6315 6.44C33.4275 6.44 33.2175 6.464 33.0015 6.512C32.7975 6.56 32.6115 6.638 32.4435 6.746C32.2755 6.842 32.1375 6.968 32.0295 7.124C31.9335 7.28 31.8855 7.472 31.8855 7.7C31.8855 8.096 32.0235 8.384 32.2995 8.564C32.5755 8.744 32.9895 8.9 33.5415 9.032L34.7475 9.32C35.3355 9.452 35.8215 9.722 36.2055 10.13C36.6015 10.526 36.7995 11.024 36.7995 11.624C36.7995 12.08 36.7035 12.476 36.5115 12.812C36.3315 13.136 36.0855 13.406 35.7735 13.622C35.4735 13.826 35.1255 13.976 34.7295 14.072C34.3335 14.168 33.9315 14.216 33.5235 14.216C32.8755 14.216 32.2695 14.096 31.7055 13.856C31.1535 13.604 30.6795 13.178 30.2835 12.578L31.3095 11.876C31.5495 12.26 31.8495 12.566 32.2095 12.794C32.5815 13.022 33.0195 13.136 33.5235 13.136C33.7635 13.136 34.0035 13.112 34.2435 13.064C34.4835 13.004 34.6935 12.92 34.8735 12.812C35.0655 12.692 35.2155 12.542 35.3235 12.362C35.4435 12.182 35.5035 11.972 35.5035 11.732C35.5035 11.312 35.3475 11.012 35.0355 10.832C34.7235 10.64 34.3455 10.49 33.9015 10.382L32.7495 10.112C32.6055 10.076 32.4075 10.016 32.1555 9.932C31.9155 9.848 31.6755 9.722 31.4355 9.554C31.2075 9.386 31.0095 9.17 30.8415 8.906C30.6735 8.63 30.5895 8.294 30.5895 7.898C30.5895 7.466 30.6735 7.088 30.8415 6.764C31.0215 6.44 31.2555 6.176 31.5435 5.972C31.8435 5.768 32.1795 5.618 32.5515 5.522C32.9235 5.414 33.3075 5.36 33.7035 5.36C34.2915 5.36 34.8375 5.474 35.3415 5.702C35.8455 5.93 36.2355 6.32 36.5115 6.872L35.4495 7.574ZM38.6495 0.391999H39.8375V6.926H39.8735C40.0055 6.698 40.1735 6.488 40.3775 6.296C40.5815 6.104 40.8095 5.942 41.0615 5.81C41.3135 5.666 41.5775 5.558 41.8535 5.486C42.1415 5.402 42.4235 5.36 42.6995 5.36C43.7795 5.36 44.5775 5.648 45.0935 6.224C45.6095 6.788 45.8675 7.598 45.8675 8.654V14H44.6795V9.338C44.6795 8.402 44.5175 7.688 44.1935 7.196C43.8695 6.692 43.2695 6.44 42.3935 6.44C42.3335 6.44 42.1655 6.464 41.8895 6.512C41.6135 6.56 41.3195 6.692 41.0075 6.908C40.7075 7.124 40.4375 7.448 40.1975 7.88C39.9575 8.312 39.8375 8.912 39.8375 9.68V14H38.6495V0.391999ZM55.8695 9.788C55.8695 9.32 55.7915 8.882 55.6355 8.474C55.4915 8.066 55.2815 7.712 55.0055 7.412C54.7295 7.112 54.3935 6.878 53.9975 6.71C53.6135 6.53 53.1755 6.44 52.6835 6.44C52.1915 6.44 51.7475 6.53 51.3515 6.71C50.9675 6.878 50.6375 7.112 50.3615 7.412C50.0975 7.712 49.8875 8.066 49.7315 8.474C49.5875 8.882 49.5155 9.32 49.5155 9.788C49.5155 10.256 49.5875 10.694 49.7315 11.102C49.8875 11.51 50.0975 11.864 50.3615 12.164C50.6375 12.464 50.9675 12.704 51.3515 12.884C51.7475 13.052 52.1915 13.136 52.6835 13.136C53.1755 13.136 53.6135 13.052 53.9975 12.884C54.3935 12.704 54.7295 12.464 55.0055 12.164C55.2815 11.864 55.4915 11.51 55.6355 11.102C55.7915 10.694 55.8695 10.256 55.8695 9.788ZM57.1655 9.788C57.1655 10.424 57.0515 11.012 56.8235 11.552C56.6075 12.092 56.3015 12.56 55.9055 12.956C55.5095 13.352 55.0355 13.664 54.4835 13.892C53.9435 14.108 53.3435 14.216 52.6835 14.216C52.0355 14.216 51.4355 14.108 50.8835 13.892C50.3435 13.664 49.8755 13.352 49.4795 12.956C49.0835 12.56 48.7715 12.092 48.5435 11.552C48.3275 11.012 48.2195 10.424 48.2195 9.788C48.2195 9.152 48.3275 8.564 48.5435 8.024C48.7715 7.484 49.0835 7.016 49.4795 6.62C49.8755 6.224 50.3435 5.918 50.8835 5.702C51.4355 5.474 52.0355 5.36 52.6835 5.36C53.3435 5.36 53.9435 5.474 54.4835 5.702C55.0355 5.918 55.5095 6.224 55.9055 6.62C56.3015 7.016 56.6075 7.484 56.8235 8.024C57.0515 8.564 57.1655 9.152 57.1655 9.788ZM67.0074 9.788C67.0074 9.32 66.9294 8.882 66.7734 8.474C66.6294 8.066 66.4194 7.712 66.1434 7.412C65.8674 7.112 65.5314 6.878 65.1354 6.71C64.7514 6.53 64.3134 6.44 63.8214 6.44C63.3294 6.44 62.8794 6.53 62.4714 6.71C62.0634 6.878 61.7094 7.112 61.4094 7.412C61.1094 7.712 60.8754 8.066 60.7074 8.474C60.5394 8.882 60.4554 9.32 60.4554 9.788C60.4554 10.256 60.5394 10.694 60.7074 11.102C60.8754 11.51 61.1094 11.864 61.4094 12.164C61.7094 12.464 62.0634 12.704 62.4714 12.884C62.8794 13.052 63.3294 13.136 63.8214 13.136C64.3134 13.136 64.7514 13.052 65.1354 12.884C65.5314 12.704 65.8674 12.464 66.1434 12.164C66.4194 11.864 66.6294 11.51 66.7734 11.102C66.9294 10.694 67.0074 10.256 67.0074 9.788ZM59.3214 5.576H60.5094V6.98H60.5454C60.7374 6.692 60.9654 6.446 61.2294 6.242C61.4934 6.038 61.7694 5.87 62.0574 5.738C62.3454 5.606 62.6394 5.51 62.9394 5.45C63.2514 5.39 63.5454 5.36 63.8214 5.36C64.4814 5.36 65.0814 5.474 65.6214 5.702C66.1734 5.918 66.6474 6.224 67.0434 6.62C67.4394 7.016 67.7454 7.484 67.9614 8.024C68.1894 8.564 68.3034 9.152 68.3034 9.788C68.3034 10.424 68.1894 11.012 67.9614 11.552C67.7454 12.092 67.4394 12.56 67.0434 12.956C66.6474 13.352 66.1734 13.664 65.6214 13.892C65.0814 14.108 64.4814 14.216 63.8214 14.216C63.5454 14.216 63.2514 14.186 62.9394 14.126C62.6394 14.066 62.3454 13.97 62.0574 13.838C61.7694 13.706 61.4934 13.538 61.2294 13.334C60.9654 13.13 60.7374 12.884 60.5454 12.596H60.5094V19.184H59.3214V5.576ZM78.0113 9.788C78.0113 9.32 77.9333 8.882 77.7773 8.474C77.6333 8.066 77.4233 7.712 77.1473 7.412C76.8713 7.112 76.5353 6.878 76.1393 6.71C75.7553 6.53 75.3173 6.44 74.8253 6.44C74.3333 6.44 73.8833 6.53 73.4753 6.71C73.0673 6.878 72.7133 7.112 72.4133 7.412C72.1133 7.712 71.8793 8.066 71.7113 8.474C71.5433 8.882 71.4593 9.32 71.4593 9.788C71.4593 10.256 71.5433 10.694 71.7113 11.102C71.8793 11.51 72.1133 11.864 72.4133 12.164C72.7133 12.464 73.0673 12.704 73.4753 12.884C73.8833 13.052 74.3333 13.136 74.8253 13.136C75.3173 13.136 75.7553 13.052 76.1393 12.884C76.5353 12.704 76.8713 12.464 77.1473 12.164C77.4233 11.864 77.6333 11.51 77.7773 11.102C77.9333 10.694 78.0113 10.256 78.0113 9.788ZM70.3253 5.576H71.5133V6.98H71.5493C71.7413 6.692 71.9693 6.446 72.2333 6.242C72.4973 6.038 72.7733 5.87 73.0613 5.738C73.3493 5.606 73.6433 5.51 73.9433 5.45C74.2553 5.39 74.5493 5.36 74.8253 5.36C75.4853 5.36 76.0853 5.474 76.6253 5.702C77.1773 5.918 77.6513 6.224 78.0473 6.62C78.4433 7.016 78.7493 7.484 78.9653 8.024C79.1933 8.564 79.3073 9.152 79.3073 9.788C79.3073 10.424 79.1933 11.012 78.9653 11.552C78.7493 12.092 78.4433 12.56 78.0473 12.956C77.6513 13.352 77.1773 13.664 76.6253 13.892C76.0853 14.108 75.4853 14.216 74.8253 14.216C74.5493 14.216 74.2553 14.186 73.9433 14.126C73.6433 14.066 73.3493 13.97 73.0613 13.838C72.7733 13.706 72.4973 13.538 72.2333 13.334C71.9693 13.13 71.7413 12.884 71.5493 12.596H71.5133V19.184H70.3253V5.576ZM83.0572 2.336C83.0572 2.588 82.9672 2.798 82.7872 2.966C82.6072 3.122 82.4092 3.2 82.1932 3.2C81.9772 3.2 81.7792 3.122 81.5992 2.966C81.4192 2.798 81.3292 2.588 81.3292 2.336C81.3292 2.084 81.4192 1.88 81.5992 1.724C81.7792 1.556 81.9772 1.472 82.1932 1.472C82.4092 1.472 82.6072 1.556 82.7872 1.724C82.9672 1.88 83.0572 2.084 83.0572 2.336ZM82.7872 14H81.5992V5.576H82.7872V14ZM86.7874 5.576C86.8114 5.804 86.8234 6.032 86.8234 6.26C86.8354 6.476 86.8414 6.698 86.8414 6.926H86.8774C87.0094 6.698 87.1774 6.488 87.3814 6.296C87.5854 6.104 87.8134 5.942 88.0654 5.81C88.3174 5.666 88.5814 5.558 88.8574 5.486C89.1454 5.402 89.4274 5.36 89.7034 5.36C90.7834 5.36 91.5814 5.648 92.0974 6.224C92.6134 6.788 92.8714 7.598 92.8714 8.654V14H91.6834V9.338C91.6834 8.402 91.5214 7.688 91.1974 7.196C90.8734 6.692 90.2734 6.44 89.3974 6.44C89.3374 6.44 89.1694 6.464 88.8934 6.512C88.6174 6.56 88.3234 6.692 88.0114 6.908C87.7114 7.124 87.4414 7.448 87.2014 7.88C86.9614 8.312 86.8414 8.912 86.8414 9.68V14H85.6534V7.43C85.6534 7.202 85.6414 6.914 85.6174 6.566C85.6054 6.218 85.5874 5.888 85.5634 5.576H86.7874ZM96.5194 9.68C96.5194 10.124 96.5974 10.544 96.7534 10.94C96.9214 11.324 97.1434 11.666 97.4194 11.966C97.7074 12.254 98.0374 12.488 98.4094 12.668C98.7934 12.836 99.2074 12.92 99.6514 12.92C100.083 12.92 100.491 12.842 100.875 12.686C101.271 12.53 101.619 12.314 101.919 12.038C102.219 11.75 102.447 11.408 102.603 11.012C102.771 10.616 102.849 10.172 102.837 9.68C102.837 9.236 102.765 8.822 102.621 8.438C102.477 8.042 102.267 7.7 101.991 7.412C101.715 7.112 101.379 6.878 100.983 6.71C100.587 6.53 100.143 6.44 99.6514 6.44C99.2074 6.44 98.7934 6.53 98.4094 6.71C98.0374 6.878 97.7074 7.112 97.4194 7.412C97.1434 7.7 96.9214 8.042 96.7534 8.438C96.5974 8.822 96.5194 9.236 96.5194 9.68ZM96.3034 15.692C96.6514 16.16 97.1014 16.532 97.6534 16.808C98.2174 17.096 98.8414 17.24 99.5254 17.24C100.125 17.24 100.635 17.15 101.055 16.97C101.475 16.802 101.811 16.568 102.063 16.268C102.327 15.968 102.513 15.614 102.621 15.206C102.741 14.81 102.801 14.384 102.801 13.928V12.416H102.765C102.381 12.992 101.913 13.4 101.361 13.64C100.809 13.88 100.227 14 99.6154 14C99.0034 14 98.4274 13.892 97.8874 13.676C97.3594 13.46 96.8974 13.166 96.5014 12.794C96.1054 12.41 95.7934 11.954 95.5654 11.426C95.3374 10.898 95.2234 10.328 95.2234 9.716C95.2234 9.104 95.3314 8.534 95.5474 8.006C95.7634 7.478 96.0574 7.016 96.4294 6.62C96.8134 6.224 97.2634 5.918 97.7794 5.702C98.3074 5.474 98.8834 5.36 99.5074 5.36C99.7594 5.36 100.023 5.384 100.299 5.432C100.587 5.48 100.869 5.564 101.145 5.684C101.433 5.804 101.715 5.972 101.991 6.188C102.267 6.392 102.525 6.656 102.765 6.98H102.801V5.576H103.989V13.928C103.989 14.384 103.929 14.87 103.809 15.386C103.701 15.902 103.479 16.376 103.143 16.808C102.819 17.24 102.363 17.6 101.775 17.888C101.187 18.176 100.419 18.32 99.4714 18.32C98.6314 18.32 97.8814 18.182 97.2214 17.906C96.5614 17.63 95.9614 17.204 95.4214 16.628L96.3034 15.692ZM115.593 6.656H113.595V14H112.407V6.656H110.625V5.576H112.407V3.272C112.407 2.156 112.665 1.364 113.181 0.895999C113.697 0.416 114.381 0.176 115.233 0.176C115.401 0.176 115.569 0.188 115.737 0.211999C115.917 0.235999 116.091 0.265999 116.259 0.301999L116.043 1.382C115.899 1.346 115.749 1.316 115.593 1.292C115.437 1.268 115.281 1.256 115.125 1.256C114.801 1.256 114.537 1.31 114.333 1.418C114.129 1.526 113.973 1.682 113.865 1.886C113.757 2.078 113.685 2.306 113.649 2.57C113.613 2.834 113.595 3.116 113.595 3.416V5.576H115.593V6.656ZM124.213 9.788C124.213 9.32 124.135 8.882 123.979 8.474C123.835 8.066 123.625 7.712 123.349 7.412C123.073 7.112 122.737 6.878 122.341 6.71C121.957 6.53 121.519 6.44 121.027 6.44C120.535 6.44 120.091 6.53 119.695 6.71C119.311 6.878 118.981 7.112 118.705 7.412C118.441 7.712 118.231 8.066 118.075 8.474C117.931 8.882 117.859 9.32 117.859 9.788C117.859 10.256 117.931 10.694 118.075 11.102C118.231 11.51 118.441 11.864 118.705 12.164C118.981 12.464 119.311 12.704 119.695 12.884C120.091 13.052 120.535 13.136 121.027 13.136C121.519 13.136 121.957 13.052 122.341 12.884C122.737 12.704 123.073 12.464 123.349 12.164C123.625 11.864 123.835 11.51 123.979 11.102C124.135 10.694 124.213 10.256 124.213 9.788ZM125.509 9.788C125.509 10.424 125.395 11.012 125.167 11.552C124.951 12.092 124.645 12.56 124.249 12.956C123.853 13.352 123.379 13.664 122.827 13.892C122.287 14.108 121.687 14.216 121.027 14.216C120.379 14.216 119.779 14.108 119.227 13.892C118.687 13.664 118.219 13.352 117.823 12.956C117.427 12.56 117.115 12.092 116.887 11.552C116.671 11.012 116.563 10.424 116.563 9.788C116.563 9.152 116.671 8.564 116.887 8.024C117.115 7.484 117.427 7.016 117.823 6.62C118.219 6.224 118.687 5.918 119.227 5.702C119.779 5.474 120.379 5.36 121.027 5.36C121.687 5.36 122.287 5.474 122.827 5.702C123.379 5.918 123.853 6.224 124.249 6.62C124.645 7.016 124.951 7.484 125.167 8.024C125.395 8.564 125.509 9.152 125.509 9.788ZM127.791 8.204C127.791 7.832 127.779 7.454 127.755 7.07C127.743 6.686 127.731 6.188 127.719 5.576H128.889V7.142H128.925C129.009 6.914 129.129 6.698 129.285 6.494C129.441 6.278 129.627 6.086 129.843 5.918C130.071 5.75 130.329 5.618 130.617 5.522C130.917 5.414 131.253 5.36 131.625 5.36C131.961 5.36 132.255 5.396 132.507 5.468L132.273 6.638C132.117 6.578 131.889 6.548 131.589 6.548C131.133 6.548 130.743 6.638 130.419 6.818C130.095 6.986 129.825 7.208 129.609 7.484C129.393 7.748 129.231 8.036 129.123 8.348C129.027 8.66 128.979 8.96 128.979 9.248V14H127.791V8.204ZM138.651 7.448C138.651 7.136 138.639 6.824 138.615 6.512C138.603 6.2 138.585 5.888 138.561 5.576H139.839V6.854H139.875C140.163 6.362 140.559 5.99 141.063 5.738C141.579 5.486 142.089 5.36 142.593 5.36C142.821 5.36 143.061 5.384 143.313 5.432C143.577 5.48 143.829 5.57 144.069 5.702C144.309 5.822 144.531 5.996 144.735 6.224C144.951 6.452 145.131 6.746 145.275 7.106C145.515 6.566 145.893 6.14 146.409 5.828C146.937 5.516 147.483 5.36 148.047 5.36C149.127 5.36 149.925 5.648 150.441 6.224C150.957 6.788 151.215 7.598 151.215 8.654V14H150.027V9.086C150.027 8.234 149.877 7.58 149.577 7.124C149.277 6.668 148.719 6.44 147.903 6.44C147.459 6.44 147.087 6.53 146.787 6.71C146.487 6.878 146.241 7.106 146.049 7.394C145.869 7.682 145.737 8.012 145.653 8.384C145.569 8.744 145.527 9.122 145.527 9.518V14H144.339V9.086C144.339 8.234 144.189 7.58 143.889 7.124C143.589 6.668 143.031 6.44 142.215 6.44C142.143 6.44 141.975 6.464 141.711 6.512C141.459 6.56 141.195 6.692 140.919 6.908C140.643 7.124 140.391 7.448 140.163 7.88C139.947 8.312 139.839 8.912 139.839 9.68V14H138.651V7.448ZM160.532 9.14C160.532 8.336 160.292 7.688 159.812 7.196C159.332 6.692 158.66 6.44 157.796 6.44C157.412 6.44 157.04 6.518 156.68 6.674C156.32 6.818 156.002 7.016 155.726 7.268C155.462 7.52 155.246 7.808 155.078 8.132C154.922 8.456 154.844 8.792 154.844 9.14H160.532ZM154.808 10.112C154.844 10.532 154.946 10.928 155.114 11.3C155.282 11.672 155.504 11.996 155.78 12.272C156.056 12.536 156.374 12.746 156.734 12.902C157.094 13.058 157.484 13.136 157.904 13.136C158.54 13.136 159.086 12.992 159.542 12.704C160.01 12.404 160.364 12.062 160.604 11.678L161.522 12.434C161.018 13.07 160.46 13.526 159.848 13.802C159.248 14.078 158.6 14.216 157.904 14.216C157.28 14.216 156.698 14.108 156.158 13.892C155.63 13.664 155.174 13.352 154.79 12.956C154.406 12.56 154.1 12.092 153.872 11.552C153.656 11.012 153.548 10.424 153.548 9.788C153.548 9.152 153.656 8.564 153.872 8.024C154.088 7.484 154.388 7.016 154.772 6.62C155.156 6.224 155.606 5.918 156.122 5.702C156.638 5.474 157.196 5.36 157.796 5.36C158.432 5.36 159.002 5.474 159.506 5.702C160.01 5.93 160.43 6.236 160.766 6.62C161.114 6.992 161.378 7.436 161.558 7.952C161.738 8.456 161.828 8.996 161.828 9.572V10.112H154.808ZM164.108 8.204C164.108 7.832 164.096 7.454 164.072 7.07C164.06 6.686 164.048 6.188 164.036 5.576H165.206V7.142H165.242C165.326 6.914 165.446 6.698 165.602 6.494C165.758 6.278 165.944 6.086 166.16 5.918C166.388 5.75 166.646 5.618 166.934 5.522C167.234 5.414 167.57 5.36 167.942 5.36C168.278 5.36 168.572 5.396 168.824 5.468L168.59 6.638C168.434 6.578 168.206 6.548 167.906 6.548C167.45 6.548 167.06 6.638 166.736 6.818C166.412 6.986 166.142 7.208 165.926 7.484C165.71 7.748 165.548 8.036 165.44 8.348C165.344 8.66 165.296 8.96 165.296 9.248V14H164.108V8.204ZM175.78 7.556C175.576 7.244 175.288 6.98 174.916 6.764C174.556 6.548 174.142 6.44 173.674 6.44C173.182 6.428 172.738 6.506 172.342 6.674C171.958 6.842 171.628 7.076 171.352 7.376C171.076 7.676 170.866 8.036 170.722 8.456C170.578 8.864 170.506 9.308 170.506 9.788C170.506 10.268 170.578 10.718 170.722 11.138C170.866 11.546 171.076 11.9 171.352 12.2C171.628 12.5 171.958 12.734 172.342 12.902C172.738 13.07 173.182 13.148 173.674 13.136C174.142 13.136 174.556 13.028 174.916 12.812C175.288 12.596 175.576 12.332 175.78 12.02L176.752 12.758C176.332 13.25 175.858 13.616 175.33 13.856C174.802 14.084 174.25 14.204 173.674 14.216C172.99 14.228 172.372 14.126 171.82 13.91C171.268 13.682 170.794 13.37 170.398 12.974C170.014 12.578 169.72 12.11 169.516 11.57C169.312 11.018 169.21 10.424 169.21 9.788C169.21 9.152 169.312 8.564 169.516 8.024C169.72 7.472 170.014 6.998 170.398 6.602C170.794 6.206 171.268 5.9 171.82 5.684C172.372 5.456 172.99 5.348 173.674 5.36C174.25 5.372 174.802 5.498 175.33 5.738C175.858 5.966 176.332 6.326 176.752 6.818L175.78 7.556ZM178.325 0.391999H179.513V6.926H179.549C179.681 6.698 179.849 6.488 180.053 6.296C180.257 6.104 180.485 5.942 180.737 5.81C180.989 5.666 181.253 5.558 181.529 5.486C181.817 5.402 182.099 5.36 182.375 5.36C183.455 5.36 184.253 5.648 184.769 6.224C185.285 6.788 185.543 7.598 185.543 8.654V14H184.355V9.338C184.355 8.402 184.193 7.688 183.869 7.196C183.545 6.692 182.945 6.44 182.069 6.44C182.009 6.44 181.841 6.464 181.565 6.512C181.289 6.56 180.995 6.692 180.683 6.908C180.383 7.124 180.113 7.448 179.873 7.88C179.633 8.312 179.513 8.912 179.513 9.68V14H178.325V0.391999ZM193.115 9.806C192.815 9.806 192.437 9.824 191.981 9.86C191.537 9.884 191.105 9.956 190.685 10.076C190.277 10.184 189.923 10.358 189.623 10.598C189.335 10.838 189.191 11.168 189.191 11.588C189.191 11.864 189.245 12.104 189.353 12.308C189.473 12.5 189.629 12.662 189.821 12.794C190.013 12.914 190.223 13.004 190.451 13.064C190.691 13.112 190.931 13.136 191.171 13.136C191.603 13.136 191.975 13.064 192.287 12.92C192.611 12.776 192.881 12.584 193.097 12.344C193.313 12.092 193.469 11.804 193.565 11.48C193.673 11.144 193.727 10.79 193.727 10.418V9.806H193.115ZM193.727 8.834V8.618C193.727 7.166 193.007 6.44 191.567 6.44C190.583 6.44 189.725 6.77 188.993 7.43L188.273 6.584C189.065 5.768 190.253 5.36 191.837 5.36C192.245 5.36 192.635 5.42 193.007 5.54C193.391 5.66 193.721 5.846 193.997 6.098C194.273 6.338 194.495 6.644 194.663 7.016C194.831 7.388 194.915 7.832 194.915 8.348V12.11C194.915 12.434 194.927 12.776 194.951 13.136C194.987 13.484 195.023 13.772 195.059 14H193.907C193.871 13.796 193.841 13.574 193.817 13.334C193.805 13.094 193.799 12.86 193.799 12.632H193.763C193.415 13.196 193.001 13.604 192.521 13.856C192.053 14.096 191.477 14.216 190.793 14.216C190.421 14.216 190.061 14.162 189.713 14.054C189.365 13.958 189.053 13.808 188.777 13.604C188.513 13.388 188.297 13.13 188.129 12.83C187.973 12.518 187.895 12.158 187.895 11.75C187.895 11.066 188.069 10.532 188.417 10.148C188.777 9.752 189.221 9.458 189.749 9.266C190.289 9.074 190.859 8.954 191.459 8.906C192.071 8.858 192.629 8.834 193.133 8.834H193.727ZM198.795 5.576C198.819 5.804 198.831 6.032 198.831 6.26C198.843 6.476 198.849 6.698 198.849 6.926H198.885C199.017 6.698 199.185 6.488 199.389 6.296C199.593 6.104 199.821 5.942 200.073 5.81C200.325 5.666 200.589 5.558 200.865 5.486C201.153 5.402 201.435 5.36 201.711 5.36C202.791 5.36 203.589 5.648 204.105 6.224C204.621 6.788 204.879 7.598 204.879 8.654V14H203.691V9.338C203.691 8.402 203.529 7.688 203.205 7.196C202.881 6.692 202.281 6.44 201.405 6.44C201.345 6.44 201.177 6.464 200.901 6.512C200.625 6.56 200.331 6.692 200.019 6.908C199.719 7.124 199.449 7.448 199.209 7.88C198.969 8.312 198.849 8.912 198.849 9.68V14H197.661V7.43C197.661 7.202 197.649 6.914 197.625 6.566C197.613 6.218 197.595 5.888 197.571 5.576H198.795ZM208.383 9.788C208.383 10.256 208.455 10.694 208.599 11.102C208.755 11.51 208.971 11.864 209.247 12.164C209.523 12.464 209.853 12.704 210.237 12.884C210.633 13.052 211.077 13.136 211.569 13.136C212.049 13.136 212.493 13.052 212.901 12.884C213.321 12.704 213.681 12.464 213.981 12.164C214.281 11.864 214.515 11.51 214.683 11.102C214.851 10.694 214.935 10.256 214.935 9.788C214.935 9.32 214.851 8.882 214.683 8.474C214.515 8.066 214.281 7.712 213.981 7.412C213.681 7.112 213.321 6.878 212.901 6.71C212.493 6.53 212.049 6.44 211.569 6.44C211.077 6.44 210.633 6.53 210.237 6.71C209.853 6.878 209.523 7.112 209.247 7.412C208.971 7.712 208.755 8.066 208.599 8.474C208.455 8.882 208.383 9.32 208.383 9.788ZM216.069 14H214.881V12.596H214.845C214.653 12.884 214.425 13.13 214.161 13.334C213.897 13.538 213.621 13.706 213.333 13.838C213.045 13.97 212.745 14.066 212.433 14.126C212.133 14.186 211.845 14.216 211.569 14.216C210.909 14.216 210.303 14.108 209.751 13.892C209.211 13.664 208.743 13.352 208.347 12.956C207.951 12.56 207.639 12.092 207.411 11.552C207.195 11.012 207.087 10.424 207.087 9.788C207.087 9.152 207.195 8.564 207.411 8.024C207.639 7.484 207.951 7.016 208.347 6.62C208.743 6.224 209.211 5.918 209.751 5.702C210.303 5.474 210.909 5.36 211.569 5.36C211.845 5.36 212.133 5.39 212.433 5.45C212.745 5.51 213.045 5.606 213.333 5.738C213.621 5.87 213.897 6.038 214.161 6.242C214.425 6.446 214.653 6.692 214.845 6.98H214.881V0.391999H216.069V14ZM220.395 2.336C220.395 2.588 220.305 2.798 220.125 2.966C219.945 3.122 219.747 3.2 219.531 3.2C219.315 3.2 219.117 3.122 218.937 2.966C218.757 2.798 218.667 2.588 218.667 2.336C218.667 2.084 218.757 1.88 218.937 1.724C219.117 1.556 219.315 1.472 219.531 1.472C219.747 1.472 219.945 1.556 220.125 1.724C220.305 1.88 220.395 2.084 220.395 2.336ZM220.125 14H218.937V5.576H220.125V14ZM227.455 7.574C227.275 7.226 227.035 6.95 226.735 6.746C226.435 6.542 226.069 6.44 225.637 6.44C225.433 6.44 225.223 6.464 225.007 6.512C224.803 6.56 224.617 6.638 224.449 6.746C224.281 6.842 224.143 6.968 224.035 7.124C223.939 7.28 223.891 7.472 223.891 7.7C223.891 8.096 224.029 8.384 224.305 8.564C224.581 8.744 224.995 8.9 225.547 9.032L226.753 9.32C227.341 9.452 227.827 9.722 228.211 10.13C228.607 10.526 228.805 11.024 228.805 11.624C228.805 12.08 228.709 12.476 228.517 12.812C228.337 13.136 228.091 13.406 227.779 13.622C227.479 13.826 227.131 13.976 226.735 14.072C226.339 14.168 225.937 14.216 225.529 14.216C224.881 14.216 224.275 14.096 223.711 13.856C223.159 13.604 222.685 13.178 222.289 12.578L223.315 11.876C223.555 12.26 223.855 12.566 224.215 12.794C224.587 13.022 225.025 13.136 225.529 13.136C225.769 13.136 226.009 13.112 226.249 13.064C226.489 13.004 226.699 12.92 226.879 12.812C227.071 12.692 227.221 12.542 227.329 12.362C227.449 12.182 227.509 11.972 227.509 11.732C227.509 11.312 227.353 11.012 227.041 10.832C226.729 10.64 226.351 10.49 225.907 10.382L224.755 10.112C224.611 10.076 224.413 10.016 224.161 9.932C223.921 9.848 223.681 9.722 223.441 9.554C223.213 9.386 223.015 9.17 222.847 8.906C222.679 8.63 222.595 8.294 222.595 7.898C222.595 7.466 222.679 7.088 222.847 6.764C223.027 6.44 223.261 6.176 223.549 5.972C223.849 5.768 224.185 5.618 224.557 5.522C224.929 5.414 225.313 5.36 225.709 5.36C226.297 5.36 226.843 5.474 227.347 5.702C227.851 5.93 228.241 6.32 228.517 6.872L227.455 7.574ZM237.207 9.14C237.207 8.336 236.967 7.688 236.487 7.196C236.007 6.692 235.335 6.44 234.471 6.44C234.087 6.44 233.715 6.518 233.355 6.674C232.995 6.818 232.677 7.016 232.401 7.268C232.137 7.52 231.921 7.808 231.753 8.132C231.597 8.456 231.519 8.792 231.519 9.14H237.207ZM231.483 10.112C231.519 10.532 231.621 10.928 231.789 11.3C231.957 11.672 232.179 11.996 232.455 12.272C232.731 12.536 233.049 12.746 233.409 12.902C233.769 13.058 234.159 13.136 234.579 13.136C235.215 13.136 235.761 12.992 236.217 12.704C236.685 12.404 237.039 12.062 237.279 11.678L238.197 12.434C237.693 13.07 237.135 13.526 236.523 13.802C235.923 14.078 235.275 14.216 234.579 14.216C233.955 14.216 233.373 14.108 232.833 13.892C232.305 13.664 231.849 13.352 231.465 12.956C231.081 12.56 230.775 12.092 230.547 11.552C230.331 11.012 230.223 10.424 230.223 9.788C230.223 9.152 230.331 8.564 230.547 8.024C230.763 7.484 231.063 7.016 231.447 6.62C231.831 6.224 232.281 5.918 232.797 5.702C233.313 5.474 233.871 5.36 234.471 5.36C235.107 5.36 235.677 5.474 236.181 5.702C236.685 5.93 237.105 6.236 237.441 6.62C237.789 6.992 238.053 7.436 238.233 7.952C238.413 8.456 238.503 8.996 238.503 9.572V10.112H231.483ZM241.737 16.52H240.531L241.737 12.29H243.195L241.737 16.52ZM252.405 2.336C252.405 2.588 252.315 2.798 252.135 2.966C251.955 3.122 251.757 3.2 251.541 3.2C251.325 3.2 251.127 3.122 250.947 2.966C250.767 2.798 250.677 2.588 250.677 2.336C250.677 2.084 250.767 1.88 250.947 1.724C251.127 1.556 251.325 1.472 251.541 1.472C251.757 1.472 251.955 1.556 252.135 1.724C252.315 1.88 252.405 2.084 252.405 2.336ZM248.985 17.114L249.039 17.132C249.135 17.156 249.243 17.18 249.363 17.204C249.471 17.228 249.573 17.24 249.669 17.24C249.957 17.24 250.185 17.186 250.353 17.078C250.533 16.97 250.665 16.826 250.749 16.646C250.833 16.478 250.887 16.292 250.911 16.088C250.935 15.884 250.947 15.68 250.947 15.476V5.576H252.135V15.674C252.135 15.794 252.129 15.998 252.117 16.286C252.105 16.586 252.027 16.886 251.883 17.186C251.751 17.486 251.517 17.75 251.181 17.978C250.857 18.206 250.383 18.32 249.759 18.32C249.423 18.32 249.111 18.26 248.823 18.14L248.985 17.114ZM261.085 14C261.061 13.772 261.043 13.55 261.031 13.334C261.031 13.106 261.031 12.878 261.031 12.65H260.995C260.863 12.878 260.695 13.088 260.491 13.28C260.287 13.472 260.059 13.64 259.807 13.784C259.555 13.916 259.285 14.018 258.997 14.09C258.721 14.174 258.445 14.216 258.169 14.216C257.089 14.216 256.291 13.934 255.775 13.37C255.259 12.794 255.001 11.978 255.001 10.922V5.576H256.189V10.238C256.189 10.706 256.225 11.12 256.297 11.48C256.369 11.84 256.489 12.146 256.657 12.398C256.837 12.638 257.071 12.824 257.359 12.956C257.659 13.076 258.031 13.136 258.475 13.136C258.535 13.136 258.703 13.112 258.979 13.064C259.255 13.016 259.543 12.884 259.843 12.668C260.155 12.452 260.431 12.128 260.671 11.696C260.911 11.264 261.031 10.664 261.031 9.896V5.576H262.219V12.146C262.219 12.374 262.225 12.662 262.237 13.01C262.261 13.358 262.285 13.688 262.309 14H261.085ZM269.467 7.574C269.287 7.226 269.047 6.95 268.747 6.746C268.447 6.542 268.081 6.44 267.649 6.44C267.445 6.44 267.235 6.464 267.019 6.512C266.815 6.56 266.629 6.638 266.461 6.746C266.293 6.842 266.155 6.968 266.047 7.124C265.951 7.28 265.903 7.472 265.903 7.7C265.903 8.096 266.041 8.384 266.317 8.564C266.593 8.744 267.007 8.9 267.559 9.032L268.765 9.32C269.353 9.452 269.839 9.722 270.223 10.13C270.619 10.526 270.817 11.024 270.817 11.624C270.817 12.08 270.721 12.476 270.529 12.812C270.349 13.136 270.103 13.406 269.791 13.622C269.491 13.826 269.143 13.976 268.747 14.072C268.351 14.168 267.949 14.216 267.541 14.216C266.893 14.216 266.287 14.096 265.723 13.856C265.171 13.604 264.697 13.178 264.301 12.578L265.327 11.876C265.567 12.26 265.867 12.566 266.227 12.794C266.599 13.022 267.037 13.136 267.541 13.136C267.781 13.136 268.021 13.112 268.261 13.064C268.501 13.004 268.711 12.92 268.891 12.812C269.083 12.692 269.233 12.542 269.341 12.362C269.461 12.182 269.521 11.972 269.521 11.732C269.521 11.312 269.365 11.012 269.053 10.832C268.741 10.64 268.363 10.49 267.919 10.382L266.767 10.112C266.623 10.076 266.425 10.016 266.173 9.932C265.933 9.848 265.693 9.722 265.453 9.554C265.225 9.386 265.027 9.17 264.859 8.906C264.691 8.63 264.607 8.294 264.607 7.898C264.607 7.466 264.691 7.088 264.859 6.764C265.039 6.44 265.273 6.176 265.561 5.972C265.861 5.768 266.197 5.618 266.569 5.522C266.941 5.414 267.325 5.36 267.721 5.36C268.309 5.36 268.855 5.474 269.359 5.702C269.863 5.93 270.253 6.32 270.529 6.872L269.467 7.574ZM277.023 6.656H274.593V11.624C274.593 11.936 274.623 12.194 274.683 12.398C274.743 12.59 274.827 12.74 274.935 12.848C275.043 12.956 275.169 13.034 275.313 13.082C275.469 13.118 275.637 13.136 275.817 13.136C276.021 13.136 276.231 13.106 276.447 13.046C276.663 12.986 276.861 12.908 277.041 12.812L277.095 13.91C276.651 14.114 276.117 14.216 275.493 14.216C275.265 14.216 275.025 14.186 274.773 14.126C274.533 14.066 274.311 13.952 274.107 13.784C273.903 13.616 273.735 13.388 273.603 13.1C273.471 12.812 273.405 12.434 273.405 11.966V6.656H271.623V5.576H273.405V3.2H274.593V5.576H277.023V6.656ZM284.517 9.68C284.517 10.124 284.595 10.544 284.751 10.94C284.919 11.324 285.141 11.666 285.417 11.966C285.705 12.254 286.035 12.488 286.407 12.668C286.791 12.836 287.205 12.92 287.649 12.92C288.081 12.92 288.489 12.842 288.873 12.686C289.269 12.53 289.617 12.314 289.917 12.038C290.217 11.75 290.445 11.408 290.601 11.012C290.769 10.616 290.847 10.172 290.835 9.68C290.835 9.236 290.763 8.822 290.619 8.438C290.475 8.042 290.265 7.7 289.989 7.412C289.713 7.112 289.377 6.878 288.981 6.71C288.585 6.53 288.141 6.44 287.649 6.44C287.205 6.44 286.791 6.53 286.407 6.71C286.035 6.878 285.705 7.112 285.417 7.412C285.141 7.7 284.919 8.042 284.751 8.438C284.595 8.822 284.517 9.236 284.517 9.68ZM284.301 15.692C284.649 16.16 285.099 16.532 285.651 16.808C286.215 17.096 286.839 17.24 287.523 17.24C288.123 17.24 288.633 17.15 289.053 16.97C289.473 16.802 289.809 16.568 290.061 16.268C290.325 15.968 290.511 15.614 290.619 15.206C290.739 14.81 290.799 14.384 290.799 13.928V12.416H290.763C290.379 12.992 289.911 13.4 289.359 13.64C288.807 13.88 288.225 14 287.613 14C287.001 14 286.425 13.892 285.885 13.676C285.357 13.46 284.895 13.166 284.499 12.794C284.103 12.41 283.791 11.954 283.563 11.426C283.335 10.898 283.221 10.328 283.221 9.716C283.221 9.104 283.329 8.534 283.545 8.006C283.761 7.478 284.055 7.016 284.427 6.62C284.811 6.224 285.261 5.918 285.777 5.702C286.305 5.474 286.881 5.36 287.505 5.36C287.757 5.36 288.021 5.384 288.297 5.432C288.585 5.48 288.867 5.564 289.143 5.684C289.431 5.804 289.713 5.972 289.989 6.188C290.265 6.392 290.523 6.656 290.763 6.98H290.799V5.576H291.987V13.928C291.987 14.384 291.927 14.87 291.807 15.386C291.699 15.902 291.477 16.376 291.141 16.808C290.817 17.24 290.361 17.6 289.773 17.888C289.185 18.176 288.417 18.32 287.469 18.32C286.629 18.32 285.879 18.182 285.219 17.906C284.559 17.63 283.959 17.204 283.419 16.628L284.301 15.692ZM301.875 9.788C301.875 9.32 301.797 8.882 301.641 8.474C301.497 8.066 301.287 7.712 301.011 7.412C300.735 7.112 300.399 6.878 300.003 6.71C299.619 6.53 299.181 6.44 298.689 6.44C298.197 6.44 297.753 6.53 297.357 6.71C296.973 6.878 296.643 7.112 296.367 7.412C296.103 7.712 295.893 8.066 295.737 8.474C295.593 8.882 295.521 9.32 295.521 9.788C295.521 10.256 295.593 10.694 295.737 11.102C295.893 11.51 296.103 11.864 296.367 12.164C296.643 12.464 296.973 12.704 297.357 12.884C297.753 13.052 298.197 13.136 298.689 13.136C299.181 13.136 299.619 13.052 300.003 12.884C300.399 12.704 300.735 12.464 301.011 12.164C301.287 11.864 301.497 11.51 301.641 11.102C301.797 10.694 301.875 10.256 301.875 9.788ZM303.171 9.788C303.171 10.424 303.057 11.012 302.829 11.552C302.613 12.092 302.307 12.56 301.911 12.956C301.515 13.352 301.041 13.664 300.489 13.892C299.949 14.108 299.349 14.216 298.689 14.216C298.041 14.216 297.441 14.108 296.889 13.892C296.349 13.664 295.881 13.352 295.485 12.956C295.089 12.56 294.777 12.092 294.549 11.552C294.333 11.012 294.225 10.424 294.225 9.788C294.225 9.152 294.333 8.564 294.549 8.024C294.777 7.484 295.089 7.016 295.485 6.62C295.881 6.224 296.349 5.918 296.889 5.702C297.441 5.474 298.041 5.36 298.689 5.36C299.349 5.36 299.949 5.474 300.489 5.702C301.041 5.918 301.515 6.224 301.911 6.62C302.307 7.016 302.613 7.484 302.829 8.024C303.057 8.564 303.171 9.152 303.171 9.788ZM314.693 6.656H312.263V11.624C312.263 11.936 312.293 12.194 312.353 12.398C312.413 12.59 312.497 12.74 312.605 12.848C312.713 12.956 312.839 13.034 312.983 13.082C313.139 13.118 313.307 13.136 313.487 13.136C313.691 13.136 313.901 13.106 314.117 13.046C314.333 12.986 314.531 12.908 314.711 12.812L314.765 13.91C314.321 14.114 313.787 14.216 313.163 14.216C312.935 14.216 312.695 14.186 312.443 14.126C312.203 14.066 311.981 13.952 311.777 13.784C311.573 13.616 311.405 13.388 311.273 13.1C311.141 12.812 311.075 12.434 311.075 11.966V6.656H309.293V5.576H311.075V3.2H312.263V5.576H314.693V6.656ZM323.532 9.788C323.532 9.32 323.454 8.882 323.298 8.474C323.154 8.066 322.944 7.712 322.668 7.412C322.392 7.112 322.056 6.878 321.66 6.71C321.276 6.53 320.838 6.44 320.346 6.44C319.854 6.44 319.41 6.53 319.014 6.71C318.63 6.878 318.3 7.112 318.024 7.412C317.76 7.712 317.55 8.066 317.394 8.474C317.25 8.882 317.178 9.32 317.178 9.788C317.178 10.256 317.25 10.694 317.394 11.102C317.55 11.51 317.76 11.864 318.024 12.164C318.3 12.464 318.63 12.704 319.014 12.884C319.41 13.052 319.854 13.136 320.346 13.136C320.838 13.136 321.276 13.052 321.66 12.884C322.056 12.704 322.392 12.464 322.668 12.164C322.944 11.864 323.154 11.51 323.298 11.102C323.454 10.694 323.532 10.256 323.532 9.788ZM324.828 9.788C324.828 10.424 324.714 11.012 324.486 11.552C324.27 12.092 323.964 12.56 323.568 12.956C323.172 13.352 322.698 13.664 322.146 13.892C321.606 14.108 321.006 14.216 320.346 14.216C319.698 14.216 319.098 14.108 318.546 13.892C318.006 13.664 317.538 13.352 317.142 12.956C316.746 12.56 316.434 12.092 316.206 11.552C315.99 11.012 315.882 10.424 315.882 9.788C315.882 9.152 315.99 8.564 316.206 8.024C316.434 7.484 316.746 7.016 317.142 6.62C317.538 6.224 318.006 5.918 318.546 5.702C319.098 5.474 319.698 5.36 320.346 5.36C321.006 5.36 321.606 5.474 322.146 5.702C322.698 5.918 323.172 6.224 323.568 6.62C323.964 7.016 324.27 7.484 324.486 8.024C324.714 8.564 324.828 9.152 324.828 9.788ZM332.713 9.788C332.713 10.256 332.785 10.694 332.929 11.102C333.085 11.51 333.301 11.864 333.577 12.164C333.853 12.464 334.183 12.704 334.567 12.884C334.963 13.052 335.407 13.136 335.899 13.136C336.379 13.136 336.823 13.052 337.231 12.884C337.651 12.704 338.011 12.464 338.311 12.164C338.611 11.864 338.845 11.51 339.013 11.102C339.181 10.694 339.265 10.256 339.265 9.788C339.265 9.32 339.181 8.882 339.013 8.474C338.845 8.066 338.611 7.712 338.311 7.412C338.011 7.112 337.651 6.878 337.231 6.71C336.823 6.53 336.379 6.44 335.899 6.44C335.407 6.44 334.963 6.53 334.567 6.71C334.183 6.878 333.853 7.112 333.577 7.412C333.301 7.712 333.085 8.066 332.929 8.474C332.785 8.882 332.713 9.32 332.713 9.788ZM340.399 14H339.211V12.596H339.175C338.983 12.884 338.755 13.13 338.491 13.334C338.227 13.538 337.951 13.706 337.663 13.838C337.375 13.97 337.075 14.066 336.763 14.126C336.463 14.186 336.175 14.216 335.899 14.216C335.239 14.216 334.633 14.108 334.081 13.892C333.541 13.664 333.073 13.352 332.677 12.956C332.281 12.56 331.969 12.092 331.741 11.552C331.525 11.012 331.417 10.424 331.417 9.788C331.417 9.152 331.525 8.564 331.741 8.024C331.969 7.484 332.281 7.016 332.677 6.62C333.073 6.224 333.541 5.918 334.081 5.702C334.633 5.474 335.239 5.36 335.899 5.36C336.175 5.36 336.463 5.39 336.763 5.45C337.075 5.51 337.375 5.606 337.663 5.738C337.951 5.87 338.227 6.038 338.491 6.242C338.755 6.446 338.983 6.692 339.175 6.98H339.211V0.391999H340.399V14ZM349.081 14C349.057 13.772 349.039 13.55 349.027 13.334C349.027 13.106 349.027 12.878 349.027 12.65H348.991C348.859 12.878 348.691 13.088 348.487 13.28C348.283 13.472 348.055 13.64 347.803 13.784C347.551 13.916 347.281 14.018 346.993 14.09C346.717 14.174 346.441 14.216 346.165 14.216C345.085 14.216 344.287 13.934 343.771 13.37C343.255 12.794 342.997 11.978 342.997 10.922V5.576H344.185V10.238C344.185 10.706 344.221 11.12 344.293 11.48C344.365 11.84 344.485 12.146 344.653 12.398C344.833 12.638 345.067 12.824 345.355 12.956C345.655 13.076 346.027 13.136 346.471 13.136C346.531 13.136 346.699 13.112 346.975 13.064C347.251 13.016 347.539 12.884 347.839 12.668C348.151 12.452 348.427 12.128 348.667 11.696C348.907 11.264 349.027 10.664 349.027 9.896V5.576H350.215V12.146C350.215 12.374 350.221 12.662 350.233 13.01C350.257 13.358 350.281 13.688 350.305 14H349.081ZM352.999 7.448C352.999 7.136 352.987 6.824 352.963 6.512C352.951 6.2 352.933 5.888 352.909 5.576H354.187V6.854H354.223C354.511 6.362 354.907 5.99 355.411 5.738C355.927 5.486 356.437 5.36 356.941 5.36C357.169 5.36 357.409 5.384 357.661 5.432C357.925 5.48 358.177 5.57 358.417 5.702C358.657 5.822 358.879 5.996 359.083 6.224C359.299 6.452 359.479 6.746 359.623 7.106C359.863 6.566 360.241 6.14 360.757 5.828C361.285 5.516 361.831 5.36 362.395 5.36C363.475 5.36 364.273 5.648 364.789 6.224C365.305 6.788 365.563 7.598 365.563 8.654V14H364.375V9.086C364.375 8.234 364.225 7.58 363.925 7.124C363.625 6.668 363.067 6.44 362.251 6.44C361.807 6.44 361.435 6.53 361.135 6.71C360.835 6.878 360.589 7.106 360.397 7.394C360.217 7.682 360.085 8.012 360.001 8.384C359.917 8.744 359.875 9.122 359.875 9.518V14H358.687V9.086C358.687 8.234 358.537 7.58 358.237 7.124C357.937 6.668 357.379 6.44 356.563 6.44C356.491 6.44 356.323 6.464 356.059 6.512C355.807 6.56 355.543 6.692 355.267 6.908C354.991 7.124 354.739 7.448 354.511 7.88C354.295 8.312 354.187 8.912 354.187 9.68V14H352.999V7.448ZM376.013 9.788C376.013 9.32 375.935 8.882 375.779 8.474C375.635 8.066 375.425 7.712 375.149 7.412C374.873 7.112 374.537 6.878 374.141 6.71C373.757 6.53 373.319 6.44 372.827 6.44C372.335 6.44 371.885 6.53 371.477 6.71C371.069 6.878 370.715 7.112 370.415 7.412C370.115 7.712 369.881 8.066 369.713 8.474C369.545 8.882 369.461 9.32 369.461 9.788C369.461 10.256 369.545 10.694 369.713 11.102C369.881 11.51 370.115 11.864 370.415 12.164C370.715 12.464 371.069 12.704 371.477 12.884C371.885 13.052 372.335 13.136 372.827 13.136C373.319 13.136 373.757 13.052 374.141 12.884C374.537 12.704 374.873 12.464 375.149 12.164C375.425 11.864 375.635 11.51 375.779 11.102C375.935 10.694 376.013 10.256 376.013 9.788ZM368.327 0.391999H369.515V6.98H369.551C369.743 6.692 369.971 6.446 370.235 6.242C370.499 6.038 370.775 5.87 371.063 5.738C371.351 5.606 371.645 5.51 371.945 5.45C372.257 5.39 372.551 5.36 372.827 5.36C373.487 5.36 374.087 5.474 374.627 5.702C375.179 5.918 375.653 6.224 376.049 6.62C376.445 7.016 376.751 7.484 376.967 8.024C377.195 8.564 377.309 9.152 377.309 9.788C377.309 10.424 377.195 11.012 376.967 11.552C376.751 12.092 376.445 12.56 376.049 12.956C375.653 13.352 375.179 13.664 374.627 13.892C374.087 14.108 373.487 14.216 372.827 14.216C372.551 14.216 372.257 14.186 371.945 14.126C371.645 14.066 371.351 13.97 371.063 13.838C370.775 13.706 370.499 13.538 370.235 13.334C369.971 13.13 369.743 12.884 369.551 12.596H369.515V14H368.327V0.391999ZM384.341 7.448C384.341 7.136 384.329 6.824 384.305 6.512C384.293 6.2 384.275 5.888 384.251 5.576H385.529V6.854H385.565C385.853 6.362 386.249 5.99 386.753 5.738C387.269 5.486 387.779 5.36 388.283 5.36C388.511 5.36 388.751 5.384 389.003 5.432C389.267 5.48 389.519 5.57 389.759 5.702C389.999 5.822 390.221 5.996 390.425 6.224C390.641 6.452 390.821 6.746 390.965 7.106C391.205 6.566 391.583 6.14 392.099 5.828C392.627 5.516 393.173 5.36 393.737 5.36C394.817 5.36 395.615 5.648 396.131 6.224C396.647 6.788 396.905 7.598 396.905 8.654V14H395.717V9.086C395.717 8.234 395.567 7.58 395.267 7.124C394.967 6.668 394.409 6.44 393.593 6.44C393.149 6.44 392.777 6.53 392.477 6.71C392.177 6.878 391.931 7.106 391.739 7.394C391.559 7.682 391.427 8.012 391.343 8.384C391.259 8.744 391.217 9.122 391.217 9.518V14H390.029V9.086C390.029 8.234 389.879 7.58 389.579 7.124C389.279 6.668 388.721 6.44 387.905 6.44C387.833 6.44 387.665 6.464 387.401 6.512C387.149 6.56 386.885 6.692 386.609 6.908C386.333 7.124 386.081 7.448 385.853 7.88C385.637 8.312 385.529 8.912 385.529 9.68V14H384.341V7.448ZM406.221 9.14C406.221 8.336 405.981 7.688 405.501 7.196C405.021 6.692 404.349 6.44 403.485 6.44C403.101 6.44 402.729 6.518 402.369 6.674C402.009 6.818 401.691 7.016 401.415 7.268C401.151 7.52 400.935 7.808 400.767 8.132C400.611 8.456 400.533 8.792 400.533 9.14H406.221ZM400.497 10.112C400.533 10.532 400.635 10.928 400.803 11.3C400.971 11.672 401.193 11.996 401.469 12.272C401.745 12.536 402.063 12.746 402.423 12.902C402.783 13.058 403.173 13.136 403.593 13.136C404.229 13.136 404.775 12.992 405.231 12.704C405.699 12.404 406.053 12.062 406.293 11.678L407.211 12.434C406.707 13.07 406.149 13.526 405.537 13.802C404.937 14.078 404.289 14.216 403.593 14.216C402.969 14.216 402.387 14.108 401.847 13.892C401.319 13.664 400.863 13.352 400.479 12.956C400.095 12.56 399.789 12.092 399.561 11.552C399.345 11.012 399.237 10.424 399.237 9.788C399.237 9.152 399.345 8.564 399.561 8.024C399.777 7.484 400.077 7.016 400.461 6.62C400.845 6.224 401.295 5.918 401.811 5.702C402.327 5.474 402.885 5.36 403.485 5.36C404.121 5.36 404.691 5.474 405.195 5.702C405.699 5.93 406.119 6.236 406.455 6.62C406.803 6.992 407.067 7.436 407.247 7.952C407.427 8.456 407.517 8.996 407.517 9.572V10.112H400.497ZM409.797 8.204C409.797 7.832 409.785 7.454 409.761 7.07C409.749 6.686 409.737 6.188 409.725 5.576H410.895V7.142H410.931C411.015 6.914 411.135 6.698 411.291 6.494C411.447 6.278 411.633 6.086 411.849 5.918C412.077 5.75 412.335 5.618 412.623 5.522C412.923 5.414 413.259 5.36 413.631 5.36C413.967 5.36 414.261 5.396 414.513 5.468L414.279 6.638C414.123 6.578 413.895 6.548 413.595 6.548C413.139 6.548 412.749 6.638 412.425 6.818C412.101 6.986 411.831 7.208 411.615 7.484C411.399 7.748 411.237 8.036 411.129 8.348C411.033 8.66 410.985 8.96 410.985 9.248V14H409.797V8.204ZM421.469 7.556C421.265 7.244 420.977 6.98 420.605 6.764C420.245 6.548 419.831 6.44 419.363 6.44C418.871 6.428 418.427 6.506 418.031 6.674C417.647 6.842 417.317 7.076 417.041 7.376C416.765 7.676 416.555 8.036 416.411 8.456C416.267 8.864 416.195 9.308 416.195 9.788C416.195 10.268 416.267 10.718 416.411 11.138C416.555 11.546 416.765 11.9 417.041 12.2C417.317 12.5 417.647 12.734 418.031 12.902C418.427 13.07 418.871 13.148 419.363 13.136C419.831 13.136 420.245 13.028 420.605 12.812C420.977 12.596 421.265 12.332 421.469 12.02L422.441 12.758C422.021 13.25 421.547 13.616 421.019 13.856C420.491 14.084 419.939 14.204 419.363 14.216C418.679 14.228 418.061 14.126 417.509 13.91C416.957 13.682 416.483 13.37 416.087 12.974C415.703 12.578 415.409 12.11 415.205 11.57C415.001 11.018 414.899 10.424 414.899 9.788C414.899 9.152 415.001 8.564 415.205 8.024C415.409 7.472 415.703 6.998 416.087 6.602C416.483 6.206 416.957 5.9 417.509 5.684C418.061 5.456 418.679 5.348 419.363 5.36C419.939 5.372 420.491 5.498 421.019 5.738C421.547 5.966 422.021 6.326 422.441 6.818L421.469 7.556ZM424.015 0.391999H425.203V6.926H425.239C425.371 6.698 425.539 6.488 425.743 6.296C425.947 6.104 426.175 5.942 426.427 5.81C426.679 5.666 426.943 5.558 427.219 5.486C427.507 5.402 427.789 5.36 428.065 5.36C429.145 5.36 429.943 5.648 430.459 6.224C430.975 6.788 431.233 7.598 431.233 8.654V14H430.045V9.338C430.045 8.402 429.883 7.688 429.559 7.196C429.235 6.692 428.635 6.44 427.759 6.44C427.699 6.44 427.531 6.464 427.255 6.512C426.979 6.56 426.685 6.692 426.373 6.908C426.073 7.124 425.803 7.448 425.563 7.88C425.323 8.312 425.203 8.912 425.203 9.68V14H424.015V0.391999ZM5.76 32.574C5.58 32.226 5.34 31.95 5.04 31.746C4.74 31.542 4.374 31.44 3.942 31.44C3.738 31.44 3.528 31.464 3.312 31.512C3.108 31.56 2.922 31.638 2.754 31.746C2.586 31.842 2.448 31.968 2.34 32.124C2.244 32.28 2.196 32.472 2.196 32.7C2.196 33.096 2.334 33.384 2.61 33.564C2.886 33.744 3.3 33.9 3.852 34.032L5.058 34.32C5.646 34.452 6.132 34.722 6.516 35.13C6.912 35.526 7.11 36.024 7.11 36.624C7.11 37.08 7.014 37.476 6.822 37.812C6.642 38.136 6.396 38.406 6.084 38.622C5.784 38.826 5.436 38.976 5.04 39.072C4.644 39.168 4.242 39.216 3.834 39.216C3.186 39.216 2.58 39.096 2.016 38.856C1.464 38.604 0.99 38.178 0.594 37.578L1.62 36.876C1.86 37.26 2.16 37.566 2.52 37.794C2.892 38.022 3.33 38.136 3.834 38.136C4.074 38.136 4.314 38.112 4.554 38.064C4.794 38.004 5.004 37.92 5.184 37.812C5.376 37.692 5.526 37.542 5.634 37.362C5.754 37.182 5.814 36.972 5.814 36.732C5.814 36.312 5.658 36.012 5.346 35.832C5.034 35.64 4.656 35.49 4.212 35.382L3.06 35.112C2.916 35.076 2.718 35.016 2.466 34.932C2.226 34.848 1.986 34.722 1.746 34.554C1.518 34.386 1.32 34.17 1.152 33.906C0.984 33.63 0.9 33.294 0.9 32.898C0.9 32.466 0.984 32.088 1.152 31.764C1.332 31.44 1.566 31.176 1.854 30.972C2.154 30.768 2.49 30.618 2.862 30.522C3.234 30.414 3.618 30.36 4.014 30.36C4.602 30.36 5.148 30.474 5.652 30.702C6.156 30.93 6.546 31.32 6.822 31.872L5.76 32.574ZM8.96006 25.392H10.1481V31.926H10.1841C10.3161 31.698 10.4841 31.488 10.6881 31.296C10.8921 31.104 11.1201 30.942 11.3721 30.81C11.6241 30.666 11.8881 30.558 12.1641 30.486C12.4521 30.402 12.7341 30.36 13.0101 30.36C14.0901 30.36 14.8881 30.648 15.4041 31.224C15.9201 31.788 16.1781 32.598 16.1781 33.654V39H14.9901V34.338C14.9901 33.402 14.8281 32.688 14.5041 32.196C14.1801 31.692 13.5801 31.44 12.7041 31.44C12.6441 31.44 12.4761 31.464 12.2001 31.512C11.9241 31.56 11.6301 31.692 11.3181 31.908C11.0181 32.124 10.7481 32.448 10.5081 32.88C10.2681 33.312 10.1481 33.912 10.1481 34.68V39H8.96006V25.392ZM26.18 34.788C26.18 34.32 26.102 33.882 25.946 33.474C25.802 33.066 25.592 32.712 25.316 32.412C25.04 32.112 24.704 31.878 24.308 31.71C23.924 31.53 23.486 31.44 22.994 31.44C22.502 31.44 22.058 31.53 21.662 31.71C21.278 31.878 20.948 32.112 20.672 32.412C20.408 32.712 20.198 33.066 20.042 33.474C19.898 33.882 19.826 34.32 19.826 34.788C19.826 35.256 19.898 35.694 20.042 36.102C20.198 36.51 20.408 36.864 20.672 37.164C20.948 37.464 21.278 37.704 21.662 37.884C22.058 38.052 22.502 38.136 22.994 38.136C23.486 38.136 23.924 38.052 24.308 37.884C24.704 37.704 25.04 37.464 25.316 37.164C25.592 36.864 25.802 36.51 25.946 36.102C26.102 35.694 26.18 35.256 26.18 34.788ZM27.476 34.788C27.476 35.424 27.362 36.012 27.134 36.552C26.918 37.092 26.612 37.56 26.216 37.956C25.82 38.352 25.346 38.664 24.794 38.892C24.254 39.108 23.654 39.216 22.994 39.216C22.346 39.216 21.746 39.108 21.194 38.892C20.654 38.664 20.186 38.352 19.79 37.956C19.394 37.56 19.082 37.092 18.854 36.552C18.638 36.012 18.53 35.424 18.53 34.788C18.53 34.152 18.638 33.564 18.854 33.024C19.082 32.484 19.394 32.016 19.79 31.62C20.186 31.224 20.654 30.918 21.194 30.702C21.746 30.474 22.346 30.36 22.994 30.36C23.654 30.36 24.254 30.474 24.794 30.702C25.346 30.918 25.82 31.224 26.216 31.62C26.612 32.016 26.918 32.484 27.134 33.024C27.362 33.564 27.476 34.152 27.476 34.788ZM37.3179 34.788C37.3179 34.32 37.2399 33.882 37.0839 33.474C36.9399 33.066 36.7299 32.712 36.4539 32.412C36.1779 32.112 35.8419 31.878 35.4459 31.71C35.0619 31.53 34.6239 31.44 34.1319 31.44C33.6399 31.44 33.1899 31.53 32.7819 31.71C32.3739 31.878 32.0199 32.112 31.7199 32.412C31.4199 32.712 31.1859 33.066 31.0179 33.474C30.8499 33.882 30.7659 34.32 30.7659 34.788C30.7659 35.256 30.8499 35.694 31.0179 36.102C31.1859 36.51 31.4199 36.864 31.7199 37.164C32.0199 37.464 32.3739 37.704 32.7819 37.884C33.1899 38.052 33.6399 38.136 34.1319 38.136C34.6239 38.136 35.0619 38.052 35.4459 37.884C35.8419 37.704 36.1779 37.464 36.4539 37.164C36.7299 36.864 36.9399 36.51 37.0839 36.102C37.2399 35.694 37.3179 35.256 37.3179 34.788ZM29.6319 30.576H30.8199V31.98H30.8559C31.0479 31.692 31.2759 31.446 31.5399 31.242C31.8039 31.038 32.0799 30.87 32.3679 30.738C32.6559 30.606 32.9499 30.51 33.2499 30.45C33.5619 30.39 33.8559 30.36 34.1319 30.36C34.7919 30.36 35.3919 30.474 35.9319 30.702C36.4839 30.918 36.9579 31.224 37.3539 31.62C37.7499 32.016 38.0559 32.484 38.2719 33.024C38.4999 33.564 38.6139 34.152 38.6139 34.788C38.6139 35.424 38.4999 36.012 38.2719 36.552C38.0559 37.092 37.7499 37.56 37.3539 37.956C36.9579 38.352 36.4839 38.664 35.9319 38.892C35.3919 39.108 34.7919 39.216 34.1319 39.216C33.8559 39.216 33.5619 39.186 33.2499 39.126C32.9499 39.066 32.6559 38.97 32.3679 38.838C32.0799 38.706 31.8039 38.538 31.5399 38.334C31.2759 38.13 31.0479 37.884 30.8559 37.596H30.8199V44.184H29.6319V30.576ZM48.3218 34.788C48.3218 34.32 48.2438 33.882 48.0878 33.474C47.9438 33.066 47.7338 32.712 47.4578 32.412C47.1818 32.112 46.8458 31.878 46.4498 31.71C46.0658 31.53 45.6278 31.44 45.1358 31.44C44.6438 31.44 44.1938 31.53 43.7858 31.71C43.3778 31.878 43.0238 32.112 42.7238 32.412C42.4238 32.712 42.1898 33.066 42.0218 33.474C41.8538 33.882 41.7698 34.32 41.7698 34.788C41.7698 35.256 41.8538 35.694 42.0218 36.102C42.1898 36.51 42.4238 36.864 42.7238 37.164C43.0238 37.464 43.3778 37.704 43.7858 37.884C44.1938 38.052 44.6438 38.136 45.1358 38.136C45.6278 38.136 46.0658 38.052 46.4498 37.884C46.8458 37.704 47.1818 37.464 47.4578 37.164C47.7338 36.864 47.9438 36.51 48.0878 36.102C48.2438 35.694 48.3218 35.256 48.3218 34.788ZM40.6358 30.576H41.8238V31.98H41.8598C42.0518 31.692 42.2798 31.446 42.5438 31.242C42.8078 31.038 43.0838 30.87 43.3718 30.738C43.6598 30.606 43.9538 30.51 44.2538 30.45C44.5658 30.39 44.8598 30.36 45.1358 30.36C45.7958 30.36 46.3958 30.474 46.9358 30.702C47.4878 30.918 47.9618 31.224 48.3578 31.62C48.7538 32.016 49.0598 32.484 49.2758 33.024C49.5038 33.564 49.6178 34.152 49.6178 34.788C49.6178 35.424 49.5038 36.012 49.2758 36.552C49.0598 37.092 48.7538 37.56 48.3578 37.956C47.9618 38.352 47.4878 38.664 46.9358 38.892C46.3958 39.108 45.7958 39.216 45.1358 39.216C44.8598 39.216 44.5658 39.186 44.2538 39.126C43.9538 39.066 43.6598 38.97 43.3718 38.838C43.0838 38.706 42.8078 38.538 42.5438 38.334C42.2798 38.13 42.0518 37.884 41.8598 37.596H41.8238V44.184H40.6358V30.576ZM53.3678 27.336C53.3678 27.588 53.2778 27.798 53.0978 27.966C52.9178 28.122 52.7198 28.2 52.5038 28.2C52.2878 28.2 52.0898 28.122 51.9098 27.966C51.7298 27.798 51.6398 27.588 51.6398 27.336C51.6398 27.084 51.7298 26.88 51.9098 26.724C52.0898 26.556 52.2878 26.472 52.5038 26.472C52.7198 26.472 52.9178 26.556 53.0978 26.724C53.2778 26.88 53.3678 27.084 53.3678 27.336ZM53.0978 39H51.9098V30.576H53.0978V39ZM57.098 30.576C57.122 30.804 57.134 31.032 57.134 31.26C57.146 31.476 57.152 31.698 57.152 31.926H57.188C57.32 31.698 57.488 31.488 57.692 31.296C57.896 31.104 58.124 30.942 58.376 30.81C58.628 30.666 58.892 30.558 59.168 30.486C59.456 30.402 59.738 30.36 60.014 30.36C61.094 30.36 61.892 30.648 62.408 31.224C62.924 31.788 63.182 32.598 63.182 33.654V39H61.994V34.338C61.994 33.402 61.832 32.688 61.508 32.196C61.184 31.692 60.584 31.44 59.708 31.44C59.648 31.44 59.48 31.464 59.204 31.512C58.928 31.56 58.634 31.692 58.322 31.908C58.022 32.124 57.752 32.448 57.512 32.88C57.272 33.312 57.152 33.912 57.152 34.68V39H55.964V32.43C55.964 32.202 55.952 31.914 55.928 31.566C55.916 31.218 55.898 30.888 55.874 30.576H57.098ZM66.8299 34.68C66.8299 35.124 66.9079 35.544 67.0639 35.94C67.2319 36.324 67.4539 36.666 67.7299 36.966C68.0179 37.254 68.3479 37.488 68.7199 37.668C69.1039 37.836 69.5179 37.92 69.9619 37.92C70.3939 37.92 70.8019 37.842 71.1859 37.686C71.5819 37.53 71.9299 37.314 72.2299 37.038C72.5299 36.75 72.7579 36.408 72.9139 36.012C73.0819 35.616 73.1599 35.172 73.1479 34.68C73.1479 34.236 73.0759 33.822 72.9319 33.438C72.7879 33.042 72.5779 32.7 72.3019 32.412C72.0259 32.112 71.6899 31.878 71.2939 31.71C70.8979 31.53 70.4539 31.44 69.9619 31.44C69.5179 31.44 69.1039 31.53 68.7199 31.71C68.3479 31.878 68.0179 32.112 67.7299 32.412C67.4539 32.7 67.2319 33.042 67.0639 33.438C66.9079 33.822 66.8299 34.236 66.8299 34.68ZM66.6139 40.692C66.9619 41.16 67.4119 41.532 67.9639 41.808C68.5279 42.096 69.1519 42.24 69.8359 42.24C70.4359 42.24 70.9459 42.15 71.3659 41.97C71.7859 41.802 72.1219 41.568 72.3739 41.268C72.6379 40.968 72.8239 40.614 72.9319 40.206C73.0519 39.81 73.1119 39.384 73.1119 38.928V37.416H73.0759C72.6919 37.992 72.2239 38.4 71.6719 38.64C71.1199 38.88 70.5379 39 69.9259 39C69.3139 39 68.7379 38.892 68.1979 38.676C67.6699 38.46 67.2079 38.166 66.8119 37.794C66.4159 37.41 66.1039 36.954 65.8759 36.426C65.6479 35.898 65.5339 35.328 65.5339 34.716C65.5339 34.104 65.6419 33.534 65.8579 33.006C66.0739 32.478 66.3679 32.016 66.7399 31.62C67.1239 31.224 67.5739 30.918 68.0899 30.702C68.6179 30.474 69.1939 30.36 69.8179 30.36C70.0699 30.36 70.3339 30.384 70.6099 30.432C70.8979 30.48 71.1799 30.564 71.4559 30.684C71.7439 30.804 72.0259 30.972 72.3019 31.188C72.5779 31.392 72.8359 31.656 73.0759 31.98H73.1119V30.576H74.2999V38.928C74.2999 39.384 74.2399 39.87 74.1199 40.386C74.0119 40.902 73.7899 41.376 73.4539 41.808C73.1299 42.24 72.6739 42.6 72.0859 42.888C71.4979 43.176 70.7299 43.32 69.7819 43.32C68.9419 43.32 68.1919 43.182 67.5319 42.906C66.8719 42.63 66.2719 42.204 65.7319 41.628L66.6139 40.692ZM79.1478 38.136C79.1478 38.388 79.0578 38.616 78.8778 38.82C78.6978 39.012 78.4638 39.108 78.1758 39.108C77.8878 39.108 77.6538 39.012 77.4738 38.82C77.2938 38.616 77.2038 38.388 77.2038 38.136C77.2038 37.884 77.2938 37.662 77.4738 37.47C77.6538 37.266 77.8878 37.164 78.1758 37.164C78.4638 37.164 78.6978 37.266 78.8778 37.47C79.0578 37.662 79.1478 37.884 79.1478 38.136ZM91.3454 31.656H88.9154V36.624C88.9154 36.936 88.9454 37.194 89.0054 37.398C89.0654 37.59 89.1494 37.74 89.2574 37.848C89.3654 37.956 89.4914 38.034 89.6354 38.082C89.7914 38.118 89.9594 38.136 90.1394 38.136C90.3434 38.136 90.5534 38.106 90.7694 38.046C90.9854 37.986 91.1834 37.908 91.3634 37.812L91.4174 38.91C90.9734 39.114 90.4394 39.216 89.8154 39.216C89.5874 39.216 89.3474 39.186 89.0954 39.126C88.8554 39.066 88.6334 38.952 88.4294 38.784C88.2254 38.616 88.0574 38.388 87.9254 38.1C87.7934 37.812 87.7274 37.434 87.7274 36.966V31.656H85.9454V30.576H87.7274V28.2H88.9154V30.576H91.3454V31.656ZM92.9659 25.392H94.1539V31.926H94.1899C94.3219 31.698 94.4899 31.488 94.6939 31.296C94.8979 31.104 95.1259 30.942 95.3779 30.81C95.6299 30.666 95.8939 30.558 96.1699 30.486C96.4579 30.402 96.7399 30.36 97.0159 30.36C98.0959 30.36 98.8939 30.648 99.4099 31.224C99.9259 31.788 100.184 32.598 100.184 33.654V39H98.9959V34.338C98.9959 33.402 98.8339 32.688 98.5099 32.196C98.1859 31.692 97.5859 31.44 96.7099 31.44C96.6499 31.44 96.4819 31.464 96.2059 31.512C95.9299 31.56 95.6359 31.692 95.3239 31.908C95.0239 32.124 94.7539 32.448 94.5139 32.88C94.2739 33.312 94.1539 33.912 94.1539 34.68V39H92.9659V25.392ZM109.52 34.14C109.52 33.336 109.28 32.688 108.8 32.196C108.32 31.692 107.648 31.44 106.784 31.44C106.4 31.44 106.028 31.518 105.668 31.674C105.308 31.818 104.99 32.016 104.714 32.268C104.45 32.52 104.234 32.808 104.066 33.132C103.91 33.456 103.832 33.792 103.832 34.14H109.52ZM103.796 35.112C103.832 35.532 103.934 35.928 104.102 36.3C104.27 36.672 104.492 36.996 104.768 37.272C105.044 37.536 105.362 37.746 105.722 37.902C106.082 38.058 106.472 38.136 106.892 38.136C107.528 38.136 108.074 37.992 108.53 37.704C108.998 37.404 109.352 37.062 109.592 36.678L110.51 37.434C110.006 38.07 109.448 38.526 108.836 38.802C108.236 39.078 107.588 39.216 106.892 39.216C106.268 39.216 105.686 39.108 105.146 38.892C104.618 38.664 104.162 38.352 103.778 37.956C103.394 37.56 103.088 37.092 102.86 36.552C102.644 36.012 102.536 35.424 102.536 34.788C102.536 34.152 102.644 33.564 102.86 33.024C103.076 32.484 103.376 32.016 103.76 31.62C104.144 31.224 104.594 30.918 105.11 30.702C105.626 30.474 106.184 30.36 106.784 30.36C107.42 30.36 107.99 30.474 108.494 30.702C108.998 30.93 109.418 31.236 109.754 31.62C110.102 31.992 110.366 32.436 110.546 32.952C110.726 33.456 110.816 33.996 110.816 34.572V35.112H103.796ZM125.666 34.788C125.666 34.32 125.588 33.882 125.432 33.474C125.288 33.066 125.078 32.712 124.802 32.412C124.526 32.112 124.19 31.878 123.794 31.71C123.41 31.53 122.972 31.44 122.48 31.44C121.988 31.44 121.538 31.53 121.13 31.71C120.722 31.878 120.368 32.112 120.068 32.412C119.768 32.712 119.534 33.066 119.366 33.474C119.198 33.882 119.114 34.32 119.114 34.788C119.114 35.256 119.198 35.694 119.366 36.102C119.534 36.51 119.768 36.864 120.068 37.164C120.368 37.464 120.722 37.704 121.13 37.884C121.538 38.052 121.988 38.136 122.48 38.136C122.972 38.136 123.41 38.052 123.794 37.884C124.19 37.704 124.526 37.464 124.802 37.164C125.078 36.864 125.288 36.51 125.432 36.102C125.588 35.694 125.666 35.256 125.666 34.788ZM117.98 25.392H119.168V31.98H119.204C119.396 31.692 119.624 31.446 119.888 31.242C120.152 31.038 120.428 30.87 120.716 30.738C121.004 30.606 121.298 30.51 121.598 30.45C121.91 30.39 122.204 30.36 122.48 30.36C123.14 30.36 123.74 30.474 124.28 30.702C124.832 30.918 125.306 31.224 125.702 31.62C126.098 32.016 126.404 32.484 126.62 33.024C126.848 33.564 126.962 34.152 126.962 34.788C126.962 35.424 126.848 36.012 126.62 36.552C126.404 37.092 126.098 37.56 125.702 37.956C125.306 38.352 124.832 38.664 124.28 38.892C123.74 39.108 123.14 39.216 122.48 39.216C122.204 39.216 121.91 39.186 121.598 39.126C121.298 39.066 121.004 38.97 120.716 38.838C120.428 38.706 120.152 38.538 119.888 38.334C119.624 38.13 119.396 37.884 119.204 37.596H119.168V39H117.98V25.392ZM130.712 27.336C130.712 27.588 130.622 27.798 130.442 27.966C130.262 28.122 130.064 28.2 129.848 28.2C129.632 28.2 129.434 28.122 129.254 27.966C129.074 27.798 128.984 27.588 128.984 27.336C128.984 27.084 129.074 26.88 129.254 26.724C129.434 26.556 129.632 26.472 129.848 26.472C130.064 26.472 130.262 26.556 130.442 26.724C130.622 26.88 130.712 27.084 130.712 27.336ZM130.442 39H129.254V30.576H130.442V39ZM134.172 34.68C134.172 35.124 134.25 35.544 134.406 35.94C134.574 36.324 134.796 36.666 135.072 36.966C135.36 37.254 135.69 37.488 136.062 37.668C136.446 37.836 136.86 37.92 137.304 37.92C137.736 37.92 138.144 37.842 138.528 37.686C138.924 37.53 139.272 37.314 139.572 37.038C139.872 36.75 140.1 36.408 140.256 36.012C140.424 35.616 140.502 35.172 140.49 34.68C140.49 34.236 140.418 33.822 140.274 33.438C140.13 33.042 139.92 32.7 139.644 32.412C139.368 32.112 139.032 31.878 138.636 31.71C138.24 31.53 137.796 31.44 137.304 31.44C136.86 31.44 136.446 31.53 136.062 31.71C135.69 31.878 135.36 32.112 135.072 32.412C134.796 32.7 134.574 33.042 134.406 33.438C134.25 33.822 134.172 34.236 134.172 34.68ZM133.956 40.692C134.304 41.16 134.754 41.532 135.306 41.808C135.87 42.096 136.494 42.24 137.178 42.24C137.778 42.24 138.288 42.15 138.708 41.97C139.128 41.802 139.464 41.568 139.716 41.268C139.98 40.968 140.166 40.614 140.274 40.206C140.394 39.81 140.454 39.384 140.454 38.928V37.416H140.418C140.034 37.992 139.566 38.4 139.014 38.64C138.462 38.88 137.88 39 137.268 39C136.656 39 136.08 38.892 135.54 38.676C135.012 38.46 134.55 38.166 134.154 37.794C133.758 37.41 133.446 36.954 133.218 36.426C132.99 35.898 132.876 35.328 132.876 34.716C132.876 34.104 132.984 33.534 133.2 33.006C133.416 32.478 133.71 32.016 134.082 31.62C134.466 31.224 134.916 30.918 135.432 30.702C135.96 30.474 136.536 30.36 137.16 30.36C137.412 30.36 137.676 30.384 137.952 30.432C138.24 30.48 138.522 30.564 138.798 30.684C139.086 30.804 139.368 30.972 139.644 31.188C139.92 31.392 140.178 31.656 140.418 31.98H140.454V30.576H141.642V38.928C141.642 39.384 141.582 39.87 141.462 40.386C141.354 40.902 141.132 41.376 140.796 41.808C140.472 42.24 140.016 42.6 139.428 42.888C138.84 43.176 138.072 43.32 137.124 43.32C136.284 43.32 135.534 43.182 134.874 42.906C134.214 42.63 133.614 42.204 133.074 41.628L133.956 40.692ZM145.176 34.68C145.176 35.124 145.254 35.544 145.41 35.94C145.578 36.324 145.8 36.666 146.076 36.966C146.364 37.254 146.694 37.488 147.066 37.668C147.45 37.836 147.864 37.92 148.308 37.92C148.74 37.92 149.148 37.842 149.532 37.686C149.928 37.53 150.276 37.314 150.576 37.038C150.876 36.75 151.104 36.408 151.26 36.012C151.428 35.616 151.506 35.172 151.494 34.68C151.494 34.236 151.422 33.822 151.278 33.438C151.134 33.042 150.924 32.7 150.648 32.412C150.372 32.112 150.036 31.878 149.64 31.71C149.244 31.53 148.8 31.44 148.308 31.44C147.864 31.44 147.45 31.53 147.066 31.71C146.694 31.878 146.364 32.112 146.076 32.412C145.8 32.7 145.578 33.042 145.41 33.438C145.254 33.822 145.176 34.236 145.176 34.68ZM144.96 40.692C145.308 41.16 145.758 41.532 146.31 41.808C146.874 42.096 147.498 42.24 148.182 42.24C148.782 42.24 149.292 42.15 149.712 41.97C150.132 41.802 150.468 41.568 150.72 41.268C150.984 40.968 151.17 40.614 151.278 40.206C151.398 39.81 151.458 39.384 151.458 38.928V37.416H151.422C151.038 37.992 150.57 38.4 150.018 38.64C149.466 38.88 148.884 39 148.272 39C147.66 39 147.084 38.892 146.544 38.676C146.016 38.46 145.554 38.166 145.158 37.794C144.762 37.41 144.45 36.954 144.222 36.426C143.994 35.898 143.88 35.328 143.88 34.716C143.88 34.104 143.988 33.534 144.204 33.006C144.42 32.478 144.714 32.016 145.086 31.62C145.47 31.224 145.92 30.918 146.436 30.702C146.964 30.474 147.54 30.36 148.164 30.36C148.416 30.36 148.68 30.384 148.956 30.432C149.244 30.48 149.526 30.564 149.802 30.684C150.09 30.804 150.372 30.972 150.648 31.188C150.924 31.392 151.182 31.656 151.422 31.98H151.458V30.576H152.646V38.928C152.646 39.384 152.586 39.87 152.466 40.386C152.358 40.902 152.136 41.376 151.8 41.808C151.476 42.24 151.02 42.6 150.432 42.888C149.844 43.176 149.076 43.32 148.128 43.32C147.288 43.32 146.538 43.182 145.878 42.906C145.218 42.63 144.618 42.204 144.078 41.628L144.96 40.692ZM161.868 34.14C161.868 33.336 161.628 32.688 161.148 32.196C160.668 31.692 159.996 31.44 159.132 31.44C158.748 31.44 158.376 31.518 158.016 31.674C157.656 31.818 157.338 32.016 157.062 32.268C156.798 32.52 156.582 32.808 156.414 33.132C156.258 33.456 156.18 33.792 156.18 34.14H161.868ZM156.144 35.112C156.18 35.532 156.282 35.928 156.45 36.3C156.618 36.672 156.84 36.996 157.116 37.272C157.392 37.536 157.71 37.746 158.07 37.902C158.43 38.058 158.82 38.136 159.24 38.136C159.876 38.136 160.422 37.992 160.878 37.704C161.346 37.404 161.7 37.062 161.94 36.678L162.858 37.434C162.354 38.07 161.796 38.526 161.184 38.802C160.584 39.078 159.936 39.216 159.24 39.216C158.616 39.216 158.034 39.108 157.494 38.892C156.966 38.664 156.51 38.352 156.126 37.956C155.742 37.56 155.436 37.092 155.208 36.552C154.992 36.012 154.884 35.424 154.884 34.788C154.884 34.152 154.992 33.564 155.208 33.024C155.424 32.484 155.724 32.016 156.108 31.62C156.492 31.224 156.942 30.918 157.458 30.702C157.974 30.474 158.532 30.36 159.132 30.36C159.768 30.36 160.338 30.474 160.842 30.702C161.346 30.93 161.766 31.236 162.102 31.62C162.45 31.992 162.714 32.436 162.894 32.952C163.074 33.456 163.164 33.996 163.164 34.572V35.112H156.144ZM169.781 32.574C169.601 32.226 169.361 31.95 169.061 31.746C168.761 31.542 168.395 31.44 167.963 31.44C167.759 31.44 167.549 31.464 167.333 31.512C167.129 31.56 166.943 31.638 166.775 31.746C166.607 31.842 166.469 31.968 166.361 32.124C166.265 32.28 166.217 32.472 166.217 32.7C166.217 33.096 166.355 33.384 166.631 33.564C166.907 33.744 167.321 33.9 167.873 34.032L169.079 34.32C169.667 34.452 170.153 34.722 170.537 35.13C170.933 35.526 171.131 36.024 171.131 36.624C171.131 37.08 171.035 37.476 170.843 37.812C170.663 38.136 170.417 38.406 170.105 38.622C169.805 38.826 169.457 38.976 169.061 39.072C168.665 39.168 168.263 39.216 167.855 39.216C167.207 39.216 166.601 39.096 166.037 38.856C165.485 38.604 165.011 38.178 164.615 37.578L165.641 36.876C165.881 37.26 166.181 37.566 166.541 37.794C166.913 38.022 167.351 38.136 167.855 38.136C168.095 38.136 168.335 38.112 168.575 38.064C168.815 38.004 169.025 37.92 169.205 37.812C169.397 37.692 169.547 37.542 169.655 37.362C169.775 37.182 169.835 36.972 169.835 36.732C169.835 36.312 169.679 36.012 169.367 35.832C169.055 35.64 168.677 35.49 168.233 35.382L167.081 35.112C166.937 35.076 166.739 35.016 166.487 34.932C166.247 34.848 166.007 34.722 165.767 34.554C165.539 34.386 165.341 34.17 165.173 33.906C165.005 33.63 164.921 33.294 164.921 32.898C164.921 32.466 165.005 32.088 165.173 31.764C165.353 31.44 165.587 31.176 165.875 30.972C166.175 30.768 166.511 30.618 166.883 30.522C167.255 30.414 167.639 30.36 168.035 30.36C168.623 30.36 169.169 30.474 169.673 30.702C170.177 30.93 170.567 31.32 170.843 31.872L169.781 32.574ZM177.338 31.656H174.908V36.624C174.908 36.936 174.938 37.194 174.998 37.398C175.058 37.59 175.142 37.74 175.25 37.848C175.358 37.956 175.484 38.034 175.628 38.082C175.784 38.118 175.952 38.136 176.132 38.136C176.336 38.136 176.546 38.106 176.762 38.046C176.978 37.986 177.176 37.908 177.356 37.812L177.41 38.91C176.966 39.114 176.432 39.216 175.808 39.216C175.58 39.216 175.34 39.186 175.088 39.126C174.848 39.066 174.626 38.952 174.422 38.784C174.218 38.616 174.05 38.388 173.918 38.1C173.786 37.812 173.72 37.434 173.72 36.966V31.656H171.938V30.576H173.72V28.2H174.908V30.576H177.338V31.656ZM183.968 32.448C183.968 32.136 183.956 31.824 183.932 31.512C183.92 31.2 183.902 30.888 183.878 30.576H185.156V31.854H185.192C185.48 31.362 185.876 30.99 186.38 30.738C186.896 30.486 187.406 30.36 187.91 30.36C188.138 30.36 188.378 30.384 188.63 30.432C188.894 30.48 189.146 30.57 189.386 30.702C189.626 30.822 189.848 30.996 190.052 31.224C190.268 31.452 190.448 31.746 190.592 32.106C190.832 31.566 191.21 31.14 191.726 30.828C192.254 30.516 192.8 30.36 193.364 30.36C194.444 30.36 195.242 30.648 195.758 31.224C196.274 31.788 196.532 32.598 196.532 33.654V39H195.344V34.086C195.344 33.234 195.194 32.58 194.894 32.124C194.594 31.668 194.036 31.44 193.22 31.44C192.776 31.44 192.404 31.53 192.104 31.71C191.804 31.878 191.558 32.106 191.366 32.394C191.186 32.682 191.054 33.012 190.97 33.384C190.886 33.744 190.844 34.122 190.844 34.518V39H189.656V34.086C189.656 33.234 189.506 32.58 189.206 32.124C188.906 31.668 188.348 31.44 187.532 31.44C187.46 31.44 187.292 31.464 187.028 31.512C186.776 31.56 186.512 31.692 186.236 31.908C185.96 32.124 185.708 32.448 185.48 32.88C185.264 33.312 185.156 33.912 185.156 34.68V39H183.968V32.448ZM205.848 34.14C205.848 33.336 205.608 32.688 205.128 32.196C204.648 31.692 203.976 31.44 203.112 31.44C202.728 31.44 202.356 31.518 201.996 31.674C201.636 31.818 201.318 32.016 201.042 32.268C200.778 32.52 200.562 32.808 200.394 33.132C200.238 33.456 200.16 33.792 200.16 34.14H205.848ZM200.124 35.112C200.16 35.532 200.262 35.928 200.43 36.3C200.598 36.672 200.82 36.996 201.096 37.272C201.372 37.536 201.69 37.746 202.05 37.902C202.41 38.058 202.8 38.136 203.22 38.136C203.856 38.136 204.402 37.992 204.858 37.704C205.326 37.404 205.68 37.062 205.92 36.678L206.838 37.434C206.334 38.07 205.776 38.526 205.164 38.802C204.564 39.078 203.916 39.216 203.22 39.216C202.596 39.216 202.014 39.108 201.474 38.892C200.946 38.664 200.49 38.352 200.106 37.956C199.722 37.56 199.416 37.092 199.188 36.552C198.972 36.012 198.864 35.424 198.864 34.788C198.864 34.152 198.972 33.564 199.188 33.024C199.404 32.484 199.704 32.016 200.088 31.62C200.472 31.224 200.922 30.918 201.438 30.702C201.954 30.474 202.512 30.36 203.112 30.36C203.748 30.36 204.318 30.474 204.822 30.702C205.326 30.93 205.746 31.236 206.082 31.62C206.43 31.992 206.694 32.436 206.874 32.952C207.054 33.456 207.144 33.996 207.144 34.572V35.112H200.124ZM209.424 33.204C209.424 32.832 209.412 32.454 209.388 32.07C209.376 31.686 209.364 31.188 209.352 30.576H210.522V32.142H210.558C210.642 31.914 210.762 31.698 210.918 31.494C211.074 31.278 211.26 31.086 211.476 30.918C211.704 30.75 211.962 30.618 212.25 30.522C212.55 30.414 212.886 30.36 213.258 30.36C213.594 30.36 213.888 30.396 214.14 30.468L213.906 31.638C213.75 31.578 213.522 31.548 213.222 31.548C212.766 31.548 212.376 31.638 212.052 31.818C211.728 31.986 211.458 32.208 211.242 32.484C211.026 32.748 210.864 33.036 210.756 33.348C210.66 33.66 210.612 33.96 210.612 34.248V39H209.424V33.204ZM221.096 32.556C220.892 32.244 220.604 31.98 220.232 31.764C219.872 31.548 219.458 31.44 218.99 31.44C218.498 31.428 218.054 31.506 217.658 31.674C217.274 31.842 216.944 32.076 216.668 32.376C216.392 32.676 216.182 33.036 216.038 33.456C215.894 33.864 215.822 34.308 215.822 34.788C215.822 35.268 215.894 35.718 216.038 36.138C216.182 36.546 216.392 36.9 216.668 37.2C216.944 37.5 217.274 37.734 217.658 37.902C218.054 38.07 218.498 38.148 218.99 38.136C219.458 38.136 219.872 38.028 220.232 37.812C220.604 37.596 220.892 37.332 221.096 37.02L222.068 37.758C221.648 38.25 221.174 38.616 220.646 38.856C220.118 39.084 219.566 39.204 218.99 39.216C218.306 39.228 217.688 39.126 217.136 38.91C216.584 38.682 216.11 38.37 215.714 37.974C215.33 37.578 215.036 37.11 214.832 36.57C214.628 36.018 214.526 35.424 214.526 34.788C214.526 34.152 214.628 33.564 214.832 33.024C215.036 32.472 215.33 31.998 215.714 31.602C216.11 31.206 216.584 30.9 217.136 30.684C217.688 30.456 218.306 30.348 218.99 30.36C219.566 30.372 220.118 30.498 220.646 30.738C221.174 30.966 221.648 31.326 222.068 31.818L221.096 32.556ZM223.642 25.392H224.83V31.926H224.866C224.998 31.698 225.166 31.488 225.37 31.296C225.574 31.104 225.802 30.942 226.054 30.81C226.306 30.666 226.57 30.558 226.846 30.486C227.134 30.402 227.416 30.36 227.692 30.36C228.772 30.36 229.57 30.648 230.086 31.224C230.602 31.788 230.86 32.598 230.86 33.654V39H229.672V34.338C229.672 33.402 229.51 32.688 229.186 32.196C228.862 31.692 228.262 31.44 227.386 31.44C227.326 31.44 227.158 31.464 226.882 31.512C226.606 31.56 226.312 31.692 226 31.908C225.7 32.124 225.43 32.448 225.19 32.88C224.95 33.312 224.83 33.912 224.83 34.68V39H223.642V25.392ZM238.432 34.806C238.132 34.806 237.754 34.824 237.298 34.86C236.854 34.884 236.422 34.956 236.002 35.076C235.594 35.184 235.24 35.358 234.94 35.598C234.652 35.838 234.508 36.168 234.508 36.588C234.508 36.864 234.562 37.104 234.67 37.308C234.79 37.5 234.946 37.662 235.138 37.794C235.33 37.914 235.54 38.004 235.768 38.064C236.008 38.112 236.248 38.136 236.488 38.136C236.92 38.136 237.292 38.064 237.604 37.92C237.928 37.776 238.198 37.584 238.414 37.344C238.63 37.092 238.786 36.804 238.882 36.48C238.99 36.144 239.044 35.79 239.044 35.418V34.806H238.432ZM239.044 33.834V33.618C239.044 32.166 238.324 31.44 236.884 31.44C235.9 31.44 235.042 31.77 234.31 32.43L233.59 31.584C234.382 30.768 235.57 30.36 237.154 30.36C237.562 30.36 237.952 30.42 238.324 30.54C238.708 30.66 239.038 30.846 239.314 31.098C239.59 31.338 239.812 31.644 239.98 32.016C240.148 32.388 240.232 32.832 240.232 33.348V37.11C240.232 37.434 240.244 37.776 240.268 38.136C240.304 38.484 240.34 38.772 240.376 39H239.224C239.188 38.796 239.158 38.574 239.134 38.334C239.122 38.094 239.116 37.86 239.116 37.632H239.08C238.732 38.196 238.318 38.604 237.838 38.856C237.37 39.096 236.794 39.216 236.11 39.216C235.738 39.216 235.378 39.162 235.03 39.054C234.682 38.958 234.37 38.808 234.094 38.604C233.83 38.388 233.614 38.13 233.446 37.83C233.29 37.518 233.212 37.158 233.212 36.75C233.212 36.066 233.386 35.532 233.734 35.148C234.094 34.752 234.538 34.458 235.066 34.266C235.606 34.074 236.176 33.954 236.776 33.906C237.388 33.858 237.946 33.834 238.45 33.834H239.044ZM244.112 30.576C244.136 30.804 244.148 31.032 244.148 31.26C244.16 31.476 244.166 31.698 244.166 31.926H244.202C244.334 31.698 244.502 31.488 244.706 31.296C244.91 31.104 245.138 30.942 245.39 30.81C245.642 30.666 245.906 30.558 246.182 30.486C246.47 30.402 246.752 30.36 247.028 30.36C248.108 30.36 248.906 30.648 249.422 31.224C249.938 31.788 250.196 32.598 250.196 33.654V39H249.008V34.338C249.008 33.402 248.846 32.688 248.522 32.196C248.198 31.692 247.598 31.44 246.722 31.44C246.662 31.44 246.494 31.464 246.218 31.512C245.942 31.56 245.648 31.692 245.336 31.908C245.036 32.124 244.766 32.448 244.526 32.88C244.286 33.312 244.166 33.912 244.166 34.68V39H242.978V32.43C242.978 32.202 242.966 31.914 242.942 31.566C242.93 31.218 242.912 30.888 242.888 30.576H244.112ZM253.7 34.788C253.7 35.256 253.772 35.694 253.916 36.102C254.072 36.51 254.288 36.864 254.564 37.164C254.84 37.464 255.17 37.704 255.554 37.884C255.95 38.052 256.394 38.136 256.886 38.136C257.366 38.136 257.81 38.052 258.218 37.884C258.638 37.704 258.998 37.464 259.298 37.164C259.598 36.864 259.832 36.51 260 36.102C260.168 35.694 260.252 35.256 260.252 34.788C260.252 34.32 260.168 33.882 260 33.474C259.832 33.066 259.598 32.712 259.298 32.412C258.998 32.112 258.638 31.878 258.218 31.71C257.81 31.53 257.366 31.44 256.886 31.44C256.394 31.44 255.95 31.53 255.554 31.71C255.17 31.878 254.84 32.112 254.564 32.412C254.288 32.712 254.072 33.066 253.916 33.474C253.772 33.882 253.7 34.32 253.7 34.788ZM261.386 39H260.198V37.596H260.162C259.97 37.884 259.742 38.13 259.478 38.334C259.214 38.538 258.938 38.706 258.65 38.838C258.362 38.97 258.062 39.066 257.75 39.126C257.45 39.186 257.162 39.216 256.886 39.216C256.226 39.216 255.62 39.108 255.068 38.892C254.528 38.664 254.06 38.352 253.664 37.956C253.268 37.56 252.956 37.092 252.728 36.552C252.512 36.012 252.404 35.424 252.404 34.788C252.404 34.152 252.512 33.564 252.728 33.024C252.956 32.484 253.268 32.016 253.664 31.62C254.06 31.224 254.528 30.918 255.068 30.702C255.62 30.474 256.226 30.36 256.886 30.36C257.162 30.36 257.45 30.39 257.75 30.45C258.062 30.51 258.362 30.606 258.65 30.738C258.938 30.87 259.214 31.038 259.478 31.242C259.742 31.446 259.97 31.692 260.162 31.98H260.198V25.392H261.386V39ZM265.712 27.336C265.712 27.588 265.622 27.798 265.442 27.966C265.262 28.122 265.064 28.2 264.848 28.2C264.632 28.2 264.434 28.122 264.254 27.966C264.074 27.798 263.984 27.588 263.984 27.336C263.984 27.084 264.074 26.88 264.254 26.724C264.434 26.556 264.632 26.472 264.848 26.472C265.064 26.472 265.262 26.556 265.442 26.724C265.622 26.88 265.712 27.084 265.712 27.336ZM265.442 39H264.254V30.576H265.442V39ZM272.772 32.574C272.592 32.226 272.352 31.95 272.052 31.746C271.752 31.542 271.386 31.44 270.954 31.44C270.75 31.44 270.54 31.464 270.324 31.512C270.12 31.56 269.934 31.638 269.766 31.746C269.598 31.842 269.46 31.968 269.352 32.124C269.256 32.28 269.208 32.472 269.208 32.7C269.208 33.096 269.346 33.384 269.622 33.564C269.898 33.744 270.312 33.9 270.864 34.032L272.07 34.32C272.658 34.452 273.144 34.722 273.528 35.13C273.924 35.526 274.122 36.024 274.122 36.624C274.122 37.08 274.026 37.476 273.834 37.812C273.654 38.136 273.408 38.406 273.096 38.622C272.796 38.826 272.448 38.976 272.052 39.072C271.656 39.168 271.254 39.216 270.846 39.216C270.198 39.216 269.592 39.096 269.028 38.856C268.476 38.604 268.002 38.178 267.606 37.578L268.632 36.876C268.872 37.26 269.172 37.566 269.532 37.794C269.904 38.022 270.342 38.136 270.846 38.136C271.086 38.136 271.326 38.112 271.566 38.064C271.806 38.004 272.016 37.92 272.196 37.812C272.388 37.692 272.538 37.542 272.646 37.362C272.766 37.182 272.826 36.972 272.826 36.732C272.826 36.312 272.67 36.012 272.358 35.832C272.046 35.64 271.668 35.49 271.224 35.382L270.072 35.112C269.928 35.076 269.73 35.016 269.478 34.932C269.238 34.848 268.998 34.722 268.758 34.554C268.53 34.386 268.332 34.17 268.164 33.906C267.996 33.63 267.912 33.294 267.912 32.898C267.912 32.466 267.996 32.088 268.164 31.764C268.344 31.44 268.578 31.176 268.866 30.972C269.166 30.768 269.502 30.618 269.874 30.522C270.246 30.414 270.63 30.36 271.026 30.36C271.614 30.36 272.16 30.474 272.664 30.702C273.168 30.93 273.558 31.32 273.834 31.872L272.772 32.574ZM282.524 34.14C282.524 33.336 282.284 32.688 281.804 32.196C281.324 31.692 280.652 31.44 279.788 31.44C279.404 31.44 279.032 31.518 278.672 31.674C278.312 31.818 277.994 32.016 277.718 32.268C277.454 32.52 277.238 32.808 277.07 33.132C276.914 33.456 276.836 33.792 276.836 34.14H282.524ZM276.8 35.112C276.836 35.532 276.938 35.928 277.106 36.3C277.274 36.672 277.496 36.996 277.772 37.272C278.048 37.536 278.366 37.746 278.726 37.902C279.086 38.058 279.476 38.136 279.896 38.136C280.532 38.136 281.078 37.992 281.534 37.704C282.002 37.404 282.356 37.062 282.596 36.678L283.514 37.434C283.01 38.07 282.452 38.526 281.84 38.802C281.24 39.078 280.592 39.216 279.896 39.216C279.272 39.216 278.69 39.108 278.15 38.892C277.622 38.664 277.166 38.352 276.782 37.956C276.398 37.56 276.092 37.092 275.864 36.552C275.648 36.012 275.54 35.424 275.54 34.788C275.54 34.152 275.648 33.564 275.864 33.024C276.08 32.484 276.38 32.016 276.764 31.62C277.148 31.224 277.598 30.918 278.114 30.702C278.63 30.474 279.188 30.36 279.788 30.36C280.424 30.36 280.994 30.474 281.498 30.702C282.002 30.93 282.422 31.236 282.758 31.62C283.106 31.992 283.37 32.436 283.55 32.952C283.73 33.456 283.82 33.996 283.82 34.572V35.112H276.8ZM292.712 27.336C292.712 27.588 292.622 27.798 292.442 27.966C292.262 28.122 292.064 28.2 291.848 28.2C291.632 28.2 291.434 28.122 291.254 27.966C291.074 27.798 290.984 27.588 290.984 27.336C290.984 27.084 291.074 26.88 291.254 26.724C291.434 26.556 291.632 26.472 291.848 26.472C292.064 26.472 292.262 26.556 292.442 26.724C292.622 26.88 292.712 27.084 292.712 27.336ZM292.442 39H291.254V30.576H292.442V39ZM296.442 30.576C296.466 30.804 296.478 31.032 296.478 31.26C296.49 31.476 296.496 31.698 296.496 31.926H296.532C296.664 31.698 296.832 31.488 297.036 31.296C297.24 31.104 297.468 30.942 297.72 30.81C297.972 30.666 298.236 30.558 298.512 30.486C298.8 30.402 299.082 30.36 299.358 30.36C300.438 30.36 301.236 30.648 301.752 31.224C302.268 31.788 302.526 32.598 302.526 33.654V39H301.338V34.338C301.338 33.402 301.176 32.688 300.852 32.196C300.528 31.692 299.928 31.44 299.052 31.44C298.992 31.44 298.824 31.464 298.548 31.512C298.272 31.56 297.978 31.692 297.666 31.908C297.366 32.124 297.096 32.448 296.856 32.88C296.616 33.312 296.496 33.912 296.496 34.68V39H295.308V32.43C295.308 32.202 295.296 31.914 295.272 31.566C295.26 31.218 295.242 30.888 295.218 30.576H296.442ZM310.391 26.256H312.659V39H310.391V26.256ZM315.257 30.36H317.309V31.746H317.345C317.549 31.314 317.861 30.942 318.281 30.63C318.701 30.306 319.271 30.144 319.991 30.144C320.567 30.144 321.053 30.24 321.449 30.432C321.857 30.624 322.187 30.876 322.439 31.188C322.691 31.5 322.871 31.86 322.979 32.268C323.087 32.676 323.141 33.102 323.141 33.546V39H320.981V34.626C320.981 34.386 320.969 34.122 320.945 33.834C320.921 33.534 320.855 33.258 320.747 33.006C320.651 32.742 320.495 32.526 320.279 32.358C320.063 32.178 319.769 32.088 319.397 32.088C319.037 32.088 318.731 32.148 318.479 32.268C318.239 32.388 318.035 32.55 317.867 32.754C317.711 32.958 317.597 33.192 317.525 33.456C317.453 33.72 317.417 33.996 317.417 34.284V39H315.257V30.36ZM332.433 37.704H332.397C332.085 38.232 331.665 38.616 331.137 38.856C330.609 39.096 330.039 39.216 329.427 39.216C328.755 39.216 328.155 39.102 327.627 38.874C327.111 38.634 326.667 38.31 326.295 37.902C325.923 37.494 325.641 37.014 325.449 36.462C325.257 35.91 325.161 35.316 325.161 34.68C325.161 34.044 325.263 33.45 325.467 32.898C325.671 32.346 325.953 31.866 326.313 31.458C326.685 31.05 327.129 30.732 327.645 30.504C328.161 30.264 328.725 30.144 329.337 30.144C329.745 30.144 330.105 30.186 330.417 30.27C330.729 30.354 331.005 30.462 331.245 30.594C331.485 30.726 331.689 30.87 331.857 31.026C332.025 31.17 332.163 31.314 332.271 31.458H332.325V25.392H334.485V39H332.433V37.704ZM327.321 34.68C327.321 35.016 327.375 35.34 327.483 35.652C327.603 35.964 327.771 36.24 327.987 36.48C328.215 36.72 328.485 36.912 328.797 37.056C329.109 37.2 329.463 37.272 329.859 37.272C330.255 37.272 330.609 37.2 330.921 37.056C331.233 36.912 331.497 36.72 331.713 36.48C331.941 36.24 332.109 35.964 332.217 35.652C332.337 35.34 332.397 35.016 332.397 34.68C332.397 34.344 332.337 34.02 332.217 33.708C332.109 33.396 331.941 33.12 331.713 32.88C331.497 32.64 331.233 32.448 330.921 32.304C330.609 32.16 330.255 32.088 329.859 32.088C329.463 32.088 329.109 32.16 328.797 32.304C328.485 32.448 328.215 32.64 327.987 32.88C327.771 33.12 327.603 33.396 327.483 33.708C327.375 34.02 327.321 34.344 327.321 34.68ZM336.499 34.68C336.499 33.996 336.619 33.378 336.859 32.826C337.111 32.262 337.447 31.782 337.867 31.386C338.287 30.99 338.785 30.684 339.361 30.468C339.937 30.252 340.549 30.144 341.197 30.144C341.845 30.144 342.457 30.252 343.033 30.468C343.609 30.684 344.107 30.99 344.527 31.386C344.947 31.782 345.277 32.262 345.517 32.826C345.769 33.378 345.895 33.996 345.895 34.68C345.895 35.364 345.769 35.988 345.517 36.552C345.277 37.104 344.947 37.578 344.527 37.974C344.107 38.37 343.609 38.676 343.033 38.892C342.457 39.108 341.845 39.216 341.197 39.216C340.549 39.216 339.937 39.108 339.361 38.892C338.785 38.676 338.287 38.37 337.867 37.974C337.447 37.578 337.111 37.104 336.859 36.552C336.619 35.988 336.499 35.364 336.499 34.68ZM338.659 34.68C338.659 35.016 338.713 35.34 338.821 35.652C338.941 35.964 339.109 36.24 339.325 36.48C339.553 36.72 339.823 36.912 340.135 37.056C340.447 37.2 340.801 37.272 341.197 37.272C341.593 37.272 341.947 37.2 342.259 37.056C342.571 36.912 342.835 36.72 343.051 36.48C343.279 36.24 343.447 35.964 343.555 35.652C343.675 35.34 343.735 35.016 343.735 34.68C343.735 34.344 343.675 34.02 343.555 33.708C343.447 33.396 343.279 33.12 343.051 32.88C342.835 32.64 342.571 32.448 342.259 32.304C341.947 32.16 341.593 32.088 341.197 32.088C340.801 32.088 340.447 32.16 340.135 32.304C339.823 32.448 339.553 32.64 339.325 32.88C339.109 33.12 338.941 33.396 338.821 33.708C338.713 34.02 338.659 34.344 338.659 34.68ZM347.917 30.36H349.969V31.746H350.005C350.209 31.314 350.521 30.942 350.941 30.63C351.361 30.306 351.931 30.144 352.651 30.144C353.227 30.144 353.713 30.24 354.109 30.432C354.517 30.624 354.847 30.876 355.099 31.188C355.351 31.5 355.531 31.86 355.639 32.268C355.747 32.676 355.801 33.102 355.801 33.546V39H353.641V34.626C353.641 34.386 353.629 34.122 353.605 33.834C353.581 33.534 353.515 33.258 353.407 33.006C353.311 32.742 353.155 32.526 352.939 32.358C352.723 32.178 352.429 32.088 352.057 32.088C351.697 32.088 351.391 32.148 351.139 32.268C350.899 32.388 350.695 32.55 350.527 32.754C350.371 32.958 350.257 33.192 350.185 33.456C350.113 33.72 350.077 33.996 350.077 34.284V39H347.917V30.36ZM359.981 35.436C360.053 36.084 360.305 36.588 360.737 36.948C361.169 37.308 361.691 37.488 362.303 37.488C362.843 37.488 363.293 37.38 363.653 37.164C364.025 36.936 364.349 36.654 364.625 36.318L366.173 37.488C365.669 38.112 365.105 38.556 364.481 38.82C363.857 39.084 363.203 39.216 362.519 39.216C361.871 39.216 361.259 39.108 360.683 38.892C360.107 38.676 359.609 38.37 359.189 37.974C358.769 37.578 358.433 37.104 358.181 36.552C357.941 35.988 357.821 35.364 357.821 34.68C357.821 33.996 357.941 33.378 358.181 32.826C358.433 32.262 358.769 31.782 359.189 31.386C359.609 30.99 360.107 30.684 360.683 30.468C361.259 30.252 361.871 30.144 362.519 30.144C363.119 30.144 363.665 30.252 364.157 30.468C364.661 30.672 365.087 30.972 365.435 31.368C365.795 31.764 366.071 32.256 366.263 32.844C366.467 33.42 366.569 34.086 366.569 34.842V35.436H359.981ZM364.409 33.816C364.397 33.18 364.199 32.682 363.815 32.322C363.431 31.95 362.897 31.764 362.213 31.764C361.565 31.764 361.049 31.95 360.665 32.322C360.293 32.694 360.065 33.192 359.981 33.816H364.409ZM373.197 32.754C372.777 32.166 372.213 31.872 371.505 31.872C371.217 31.872 370.935 31.944 370.659 32.088C370.383 32.232 370.245 32.466 370.245 32.79C370.245 33.054 370.359 33.246 370.587 33.366C370.815 33.486 371.103 33.588 371.451 33.672C371.799 33.756 372.171 33.846 372.567 33.942C372.975 34.026 373.353 34.164 373.701 34.356C374.049 34.536 374.337 34.788 374.565 35.112C374.793 35.436 374.907 35.88 374.907 36.444C374.907 36.96 374.793 37.398 374.565 37.758C374.349 38.106 374.061 38.388 373.701 38.604C373.353 38.82 372.957 38.976 372.513 39.072C372.069 39.168 371.625 39.216 371.181 39.216C370.509 39.216 369.891 39.12 369.327 38.928C368.763 38.736 368.259 38.388 367.815 37.884L369.255 36.534C369.531 36.846 369.825 37.104 370.137 37.308C370.461 37.5 370.851 37.596 371.307 37.596C371.463 37.596 371.625 37.578 371.793 37.542C371.961 37.506 372.117 37.446 372.261 37.362C372.405 37.278 372.519 37.176 372.603 37.056C372.699 36.924 372.747 36.774 372.747 36.606C372.747 36.306 372.633 36.084 372.405 35.94C372.177 35.796 371.889 35.682 371.541 35.598C371.193 35.502 370.815 35.418 370.407 35.346C370.011 35.262 369.639 35.136 369.291 34.968C368.943 34.788 368.655 34.542 368.427 34.23C368.199 33.918 368.085 33.486 368.085 32.934C368.085 32.454 368.181 32.04 368.373 31.692C368.577 31.332 368.841 31.038 369.165 30.81C369.489 30.582 369.861 30.414 370.281 30.306C370.701 30.198 371.127 30.144 371.559 30.144C372.135 30.144 372.705 30.246 373.269 30.45C373.833 30.642 374.289 30.978 374.637 31.458L373.197 32.754ZM376.623 30.36H378.783V39H376.623V30.36ZM376.317 27.426C376.317 27.078 376.443 26.778 376.695 26.526C376.959 26.262 377.289 26.13 377.685 26.13C378.081 26.13 378.411 26.256 378.675 26.508C378.951 26.748 379.089 27.054 379.089 27.426C379.089 27.798 378.951 28.11 378.675 28.362C378.411 28.602 378.081 28.722 377.685 28.722C377.289 28.722 376.959 28.596 376.695 28.344C376.443 28.08 376.317 27.774 376.317 27.426ZM386.663 37.812H386.609C386.297 38.304 385.901 38.664 385.421 38.892C384.941 39.108 384.413 39.216 383.837 39.216C383.441 39.216 383.051 39.162 382.667 39.054C382.295 38.946 381.959 38.784 381.659 38.568C381.371 38.352 381.137 38.082 380.957 37.758C380.777 37.434 380.687 37.056 380.687 36.624C380.687 36.156 380.771 35.76 380.939 35.436C381.107 35.1 381.329 34.824 381.605 34.608C381.893 34.38 382.223 34.2 382.595 34.068C382.967 33.936 383.351 33.84 383.747 33.78C384.155 33.708 384.563 33.666 384.971 33.654C385.379 33.63 385.763 33.618 386.123 33.618H386.663V33.384C386.663 32.844 386.477 32.442 386.105 32.178C385.733 31.902 385.259 31.764 384.683 31.764C384.227 31.764 383.801 31.848 383.405 32.016C383.009 32.172 382.667 32.388 382.379 32.664L381.245 31.53C381.725 31.038 382.283 30.684 382.919 30.468C383.567 30.252 384.233 30.144 384.917 30.144C385.529 30.144 386.045 30.216 386.465 30.36C386.885 30.492 387.233 30.666 387.509 30.882C387.785 31.098 387.995 31.35 388.139 31.638C388.295 31.914 388.403 32.196 388.463 32.484C388.535 32.772 388.577 33.054 388.589 33.33C388.601 33.594 388.607 33.828 388.607 34.032V39H386.663V37.812ZM386.537 35.13H386.087C385.787 35.13 385.451 35.142 385.079 35.166C384.707 35.19 384.353 35.25 384.017 35.346C383.693 35.43 383.417 35.562 383.189 35.742C382.961 35.91 382.847 36.15 382.847 36.462C382.847 36.666 382.889 36.84 382.973 36.984C383.069 37.116 383.189 37.23 383.333 37.326C383.477 37.422 383.639 37.494 383.819 37.542C383.999 37.578 384.179 37.596 384.359 37.596C385.103 37.596 385.649 37.422 385.997 37.074C386.357 36.714 386.537 36.228 386.537 35.616V35.13Z" fill="#6A6A6A"/>
</svg>
